<?xml version="1.0" encoding="utf-8"?>
<!-- Generator: Adobe Illustrator 24.0.1, SVG Export Plug-In . SVG Version: 6.00 Build 0)  -->
<svg version="1.1" xmlns="http://www.w3.org/2000/svg" xmlns:xlink="http://www.w3.org/1999/xlink" x="0px" y="0px"
	 viewBox="0 0 1920 1080" style="enable-background:new 0 0 1920 1080;" xml:space="preserve">
<style type="text/css">
	.st0{opacity:0.47;}
	.st1{fill:#A3E1DB;}
	.st2{opacity:0.56;}
	.st3{fill:#A3E3E3;}
	.st4{fill:#03BBAB;}
	.st5{fill:#27312F;}
	.st6{fill:#FA877B;}
	.st7{fill:#139493;}
	.st8{fill:#95999F;}
	.st9{fill:#95999F;stroke:#4D4D4D;stroke-miterlimit:10;}
	.st10{fill:#D9E0E6;}
	.st11{fill:#FFFFFF;}
	.st12{fill:#1B1B1B;}
</style>
<g id="Layer_10">
</g>
<g id="Layer_11">
</g>
<g id="Layer_9">
</g>
<g id="Layer_12">
</g>
<g id="Layer_15">
</g>
<g id="Layer_16">
</g>
<g id="Layer_1">
</g>
<g id="Layer_14">
</g>
<g id="Layer_6">
</g>
<g id="Layer_8">
</g>
<g id="Layer_13">
</g>
<g id="Layer_2">
	<g>
		<g class="st0">
			<g>
				<path class="st1" d="M1537,809.97c-65.94-163.96-217.47-57.38-309.06-212.16c-49.12-83-13.41-215.41-96.71-326.85
					c-37.87-50.66-183.03-93.97-282.9,39.51C725.67,474.43,412.45,428.52,385.83,678.91c-10.87,102.22,68.47,245.55,167.13,245.55
					l984.04-0.1V809.97z"/>
			</g>
		</g>
		<g class="st2">
			<g>
				<path class="st3" d="M1298.41,705.13c0-273.28-260.88-205.07-395.88-435.73C767.54,38.75,673.05,84.65,620.95,127.49
					c-124.85,102.66-21,314.13-23.32,391.02c-2.33,76.88-105.71,111.56-74.36,277.92c8.17,43.34,48.01,127.93,96.21,127.93
					l510.13,0.11C1248.77,924.46,1298.41,797.59,1298.41,705.13z"/>
			</g>
		</g>
	</g>
</g>
<g id="Layer_7">
</g>
<g id="Layer_5">
	<g>
		<g>
			<g>
				<path class="st4" d="M1334.82,920.5c0,0,92.55-20.67,157.27-77.01C1492.08,843.5,1397.53,816.2,1334.82,920.5z"/>
				<g>
					<path class="st5" d="M1332.3,922.32l1.47-2.44c32.63-54.26,74-72.47,102.96-78.19c31.4-6.2,55.45,0.57,55.69,0.64l2.16,0.62
						l-1.69,1.47c-64.2,55.89-156.87,77.07-157.8,77.28L1332.3,922.32z M1463.63,841.51c-7.79,0-16.8,0.66-26.54,2.6
						c-27.99,5.55-67.81,23.01-99.69,74.51c15.89-3.99,94.81-25.62,152.09-74.5C1485.42,843.22,1476.1,841.51,1463.63,841.51z"/>
				</g>
			</g>
			<g>
				<g>
					
						<rect x="1428.7" y="852.84" transform="matrix(0.6508 -0.7592 0.7592 0.6508 -145.0486 1391.6023)" class="st5" width="23.27" height="1.3"/>
				</g>
				<g>
					
						<rect x="1424.16" y="862.16" transform="matrix(0.2208 -0.9753 0.9753 0.2208 257.7394 2070.7253)" class="st5" width="1.29" height="23.79"/>
				</g>
				<g>
					
						<rect x="1377.73" y="877.31" transform="matrix(0.4635 -0.8861 0.8861 0.4635 -32.8873 1701.5907)" class="st5" width="21.87" height="1.29"/>
				</g>
				<g>
					
						<rect x="1369.16" y="894.71" transform="matrix(0.9955 -0.0945 0.0945 0.9955 -78.4029 134.5703)" class="st5" width="25.88" height="1.29"/>
				</g>
				<path class="st5" d="M1335.93,919.14l0.71,0.94c0.09-0.02,0.19-0.05,0.29-0.07c72.44-54.99,132.37-71.7,154.98-76.36
					c0.06-0.05,0.12-0.1,0.18-0.15c0,0-0.93-0.27-2.65-0.64C1465.11,848.16,1406.36,865.61,1335.93,919.14z"/>
			</g>
		</g>
		<g>
			<g>
				<path class="st6" d="M1296.92,924.22c42.65-155.06,152.65-155.56,152.65-155.56c-42.95,77.18-110,132.99-140.05,155.56H1296.92z
					"/>
				<g>
					<path class="st5" d="M1309.93,925.45h-14.61l0.42-1.55c22.14-80.49,62.72-118.74,92.87-136.66
						c32.74-19.45,60.67-19.8,60.95-19.81l2.09-0.01l-1.02,1.83c-43.59,78.33-112.7,135.15-140.39,155.95L1309.93,925.45z
						 M1298.53,923h10.59c27.55-20.73,95.07-76.39,138.31-153.01c-7.07,0.5-30.69,3.35-57.69,19.43
						C1360.21,807,1320.52,844.43,1298.53,923z"/>
				</g>
			</g>
			<g>
				<g>
					<polygon class="st5" points="1387.2,817.28 1388.56,818.04 1400.53,788.12 1399.17,787.37 					"/>
				</g>
				<g>
					<polygon class="st5" points="1368.38,836.85 1368.43,838.67 1396.29,836.59 1396.24,834.77 					"/>
				</g>
				<g>
					<polygon class="st5" points="1338.9,871.27 1340.37,871.63 1346.16,841.36 1344.69,841 					"/>
				</g>
				<g>
					<polygon class="st5" points="1325.71,888.38 1326.23,890.08 1354.73,876.62 1354.22,874.92 					"/>
				</g>
				<path class="st5" d="M1300.58,924.22c61.98-94.39,120.58-139.06,145.81-155.39c2.06-0.17,3.19-0.17,3.19-0.17
					c-0.05,0.09-0.1,0.18-0.15,0.27c-23.49,14.79-83.33,58.77-146.94,155.29H1300.58z"/>
			</g>
		</g>
		<g>
			<g>
				<path class="st4" d="M1276.37,924.22c-22.98-117.54,89.34-303.28,89.34-303.28c37.85,155.87-47.36,271.32-74.6,303.28H1276.37z"
					/>
				<g>
					<path class="st5" d="M1291.68,925.45h-16.31l-0.19-0.99c-11.93-61.02,13.06-140.49,36.12-196.42
						c24.95-60.51,53.09-107.26,53.37-107.73l1.53-2.54l0.7,2.88c37.97,156.36-47.69,272.49-74.85,304.36L1291.68,925.45z
						 M1277.38,923h13.17c27.19-32.04,110.42-145.77,74.67-298.83C1351.89,647.03,1257,814.74,1277.38,923z"/>
				</g>
			</g>
			<g>
				<g>
					<path class="st5" d="M1336.91,689.6c5.98,17.97,9.83,37.93,9.87,38.13l1.94-0.37c-0.04-0.2-3.91-20.29-9.93-38.39
						L1336.91,689.6z"/>
				</g>
				<g>
					<path class="st5" d="M1336.99,769.52l1.42,1.38c0.16-0.17,16.44-16.98,27.96-35.67l-1.68-1.04
						C1353.27,752.69,1337.15,769.36,1336.99,769.52z"/>
				</g>
				<g>
					<path class="st5" d="M1312.26,764.02c8,25.57,11.85,51.28,11.89,51.53l1.96-0.29c-0.04-0.26-3.91-26.12-11.96-51.84
						L1312.26,764.02z"/>
				</g>
				<path class="st5" d="M1284.35,924.22c57.99-129.61,77.71-278.11,80.58-301.98c0.51-0.85,0.78-1.3,0.78-1.3
					c0.32,1.31,0.6,2.61,0.9,3.91c-3.76,30.05-23.94,173.42-80.09,299.36H1284.35z"/>
			</g>
		</g>
		<g>
			<g>
				<path class="st6" d="M1277.52,776.04l33.69-25.62c0,0-16.12,116.81-36.83,173.8h-17.98c-11.53-33.51-52.09-171.2,26.67-255.02
					c0,0,31.44,21.98,30.33,64.33L1277.52,776.04z"/>
				<g>
					<path class="st5" d="M1275.23,925.45h-19.71l-0.28-0.82c-5.61-16.3-18.84-59.55-20.59-109
						c-2.19-61.83,13.8-111.37,47.52-147.26l0.72-0.77l0.87,0.61c0.32,0.22,31.97,22.85,30.85,65.36l-0.01,0.43l-29,34.37
						l27.22-20.7l-0.4,2.93c-0.16,1.17-16.37,117.6-36.89,174.05L1275.23,925.45z M1257.27,923h16.25
						c18.47-51.44,33.4-151.4,36.06-169.81l-40.14,30.53l42.75-50.65c0.77-37.07-24.04-58.37-28.98-62.23
						C1207.49,752.52,1243.75,883.35,1257.27,923z"/>
				</g>
			</g>
			<g>
				<g>
					<path class="st5" d="M1285.62,746.25c-0.16,0.18-15.82,18-20.94,29.24l-1.8-0.82c5.24-11.51,20.61-28.99,21.26-29.73
						L1285.62,746.25z"/>
				</g>
				<g>
					<path class="st5" d="M1293.28,783.05c-20.07,29.93-31.91,51.8-32.03,52.01l-1.74-0.94c0.12-0.22,12.01-22.17,32.13-52.18
						L1293.28,783.05z"/>
				</g>
				<g>
					<path class="st5" d="M1263.17,793.71l-1.86,0.67c-3.01-8.41-14.05-26.85-14.16-27.04l1.7-1.02
						C1249.3,767.09,1260.1,785.11,1263.17,793.71z"/>
				</g>
				<path class="st5" d="M1265.71,920.53c-0.47,1.26-0.94,2.49-1.4,3.7h-0.08c-13.9-96.24,5.26-209.95,12.66-248.01
					c0.86-1.03,1.73-2.07,2.63-3.09C1272.81,706.72,1252.35,822.16,1265.71,920.53z"/>
			</g>
		</g>
	</g>
</g>
<g id="Layer_4">
	<g>
		<g>
			<g>
				<g>
					<path class="st7" d="M1386.55,419.64c-6.24,0.72-11.62,13.93-13.82,19.81c-1.7,4.54-1.4,9.63-0.16,14.31
						c1.81,6.83,9.12,15.62,12.41,18.79c3.15,3.03,5.24-0.52,9.09-2.6c3.84-2.08,6.6-5.74,8.6-9.63c3.91-7.58,5.13-17.28,0.4-24.37
						C1399.59,430.74,1392.78,418.93,1386.55,419.64z"/>
					<g>
						<path class="st5" d="M1387.4,474.52c-0.93,0-1.92-0.39-2.96-1.4c-3.31-3.19-10.76-12.08-12.63-19.16
							c-1.45-5.48-1.39-10.6,0.18-14.79c4.84-12.93,9.71-19.77,14.47-20.32l0,0c6.02-0.7,12.04,8.59,16.02,14.73
							c0.46,0.71,0.88,1.36,1.26,1.93c5.25,7.87,3.26,18.16-0.36,25.17c-2.43,4.71-5.43,8.06-8.93,9.96c-1,0.54-1.87,1.19-2.71,1.81
							C1390.35,473.48,1388.93,474.52,1387.4,474.52z M1386.64,420.43c-4,0.46-8.68,7.32-13.17,19.3c-1.45,3.88-1.5,8.67-0.14,13.83
							c1.77,6.69,9.12,15.45,12.2,18.42c1.73,1.67,2.86,0.96,5.26-0.8c0.85-0.62,1.8-1.33,2.9-1.93c3.21-1.74,6-4.87,8.28-9.29
							c3.41-6.61,5.31-16.27,0.45-23.57c-0.39-0.58-0.81-1.24-1.27-1.95C1397.61,428.99,1391.69,419.86,1386.64,420.43
							L1386.64,420.43z"/>
					</g>
				</g>
				<g>
					<path class="st7" d="M1418.16,504.14c-2.07-1.21-4.25-2.28-6.56-2.91c-6.24-1.7-13.01-0.07-18.67,3.06
						c-5.66,3.12-10.42,7.63-15.11,12.08l-1.23,3.53c6.6,7.47,15.72,12.66,25.51,14.51c2.15,0.41,4.36,0.66,6.53,0.35
						c5.34-0.78,9.57-4.82,13.18-8.83c2.48-2.76,11.33-6.37,11.5-10.08C1433.55,510.57,1422.71,506.81,1418.16,504.14z"/>
					<g>
						<path class="st5" d="M1406.56,535.69c-1.7,0-3.31-0.25-4.62-0.5c-10-1.9-19.22-7.14-25.95-14.77l-0.31-0.35l1.44-4.15
							l0.14-0.13c4.66-4.43,9.48-9.01,15.27-12.2c6.55-3.61,13.39-4.72,19.26-3.13c2.1,0.57,4.25,1.52,6.76,2.99l0,0
							c0.98,0.58,2.31,1.23,3.72,1.92c5.36,2.63,12.03,5.89,11.82,10.5c-0.13,2.77-3.81,5.13-7.37,7.41
							c-1.8,1.15-3.51,2.25-4.34,3.17c-3.82,4.24-8.11,8.28-13.66,9.09C1408.01,535.65,1407.28,535.69,1406.56,535.69z
							 M1377.49,519.72c6.48,7.18,15.25,12.11,24.75,13.92c1.73,0.33,4.01,0.66,6.27,0.34c5.05-0.74,9.09-4.56,12.71-8.58
							c0.97-1.08,2.76-2.23,4.66-3.44c2.92-1.87,6.55-4.19,6.64-6.15c0.17-3.58-6.25-6.72-10.93-9.01c-1.44-0.7-2.79-1.37-3.83-1.97
							l0,0c-2.38-1.39-4.4-2.29-6.37-2.83c-5.47-1.49-11.89-0.43-18.08,2.98c-5.56,3.06-10.26,7.51-14.8,11.83L1377.49,519.72z"/>
					</g>
				</g>
				<g>
					<path class="st7" d="M1363.1,478.78c-4.77-3.31-12.68-7.26-17.23-3.65c-3.13,2.48-3.05,8.88-2.73,12.85
						c0.62,7.76,5.41,14.7,11.43,19.63c6.02,4.93,13.23,8.15,20.34,11.31l1.39-0.17C1381.13,504.49,1375.47,487.35,1363.1,478.78z"
						/>
					<g>
						<path class="st5" d="M1374.78,519.73l-0.2-0.09c-7.06-3.14-14.37-6.38-20.52-11.42c-6.87-5.63-11.14-12.99-11.71-20.18
							c-0.56-6.95,0.46-11.5,3.02-13.53c5.44-4.32,14.52,1.09,18.18,3.62l0,0c12.63,8.75,18.43,26.32,13.5,40.87l-0.16,0.47
							L1374.78,519.73z M1350.37,474.48c-1.48,0-2.87,0.36-4.02,1.27c-1.46,1.16-3.07,4.21-2.43,12.17
							c0.54,6.77,4.6,13.72,11.14,19.08c5.93,4.85,13.05,8.04,19.96,11.11l0.68-0.08c4.44-13.81-1.12-30.32-13.05-38.59
							C1360.66,478.05,1355.04,474.48,1350.37,474.48z"/>
					</g>
				</g>
				<g>
					<path class="st7" d="M1343.13,532.77c-1.49-2.78-3.11-5.6-5.59-7.55c-3.79-2.98-9.09-3.44-13.76-2.29
						c-2.22,0.55-4.36,1.43-6.24,2.73c-5.83,4.03-8.42,11.82-7.2,18.8c1.22,6.98,5.79,13.08,11.54,17.22
						c5.75,4.14,12.61,6.49,19.53,8.01l1.87-1.76c2.84-6.59,5.74-13.54,5.07-20.69C1347.87,542.1,1345.57,537.32,1343.13,532.77z"/>
					<g>
						<path class="st5" d="M1341.65,570.55l-0.41-0.09c-8.23-1.8-14.71-4.47-19.82-8.15c-6.37-4.59-10.69-11.05-11.86-17.73
							c-1.34-7.68,1.68-15.55,7.53-19.58c1.86-1.28,4.05-2.24,6.5-2.85c5.4-1.33,10.81-0.42,14.44,2.44c2.58,2.03,4.22,4.85,5.8,7.8
							l0,0c2.3,4.3,4.81,9.34,5.31,14.77c0.7,7.53-2.4,14.73-5.13,21.08l-0.18,0.26L1341.65,570.55z M1328.46,523.14
							c-1.46,0-2.98,0.18-4.49,0.56c-2.26,0.56-4.27,1.44-5.98,2.61c-5.34,3.69-8.1,10.93-6.86,18.01
							c1.1,6.28,5.19,12.37,11.22,16.72c4.84,3.49,11.01,6.04,18.83,7.79l1.45-1.36c2.64-6.14,5.6-13.09,4.94-20.15
							c-0.48-5.14-2.9-10.01-5.13-14.17l0,0c-1.5-2.8-3.04-5.46-5.38-7.3C1334.79,524.07,1331.75,523.14,1328.46,523.14z"/>
					</g>
				</g>
				<g>
					<path class="st7" d="M1390,564.99c-7.56-4.27-15.87-7.73-24.5-6.78s-27.17,11.74-22.18,15.31c5.67,4.05,21.88,17.2,28.79,18.1
						c5.66,0.74,23.02-3.5,23.99-5.18C1398.36,582.53,1395.93,568.34,1390,564.99z"/>
					<g>
						<path class="st5" d="M1373.51,592.48c-0.57,0-1.08-0.03-1.5-0.08c-5.85-0.77-17.45-9.48-25.12-15.25
							c-1.61-1.21-2.99-2.25-4.03-2.99c-0.99-0.71-1.37-1.75-1.07-2.92c1.3-4.98,15.97-12.98,23.62-13.82
							c9.51-1.04,18.34,3.13,24.98,6.88l0,0c3.61,2.04,5.47,7.18,6.26,10.06c1.39,5.08,1.44,10.21,0.14,12.47
							C1395.6,588.88,1380.18,592.48,1373.51,592.48z M1368.41,558.84c-0.94,0-1.88,0.05-2.82,0.15c-7.3,0.8-21.24,8.72-22.26,12.65
							c-0.14,0.54-0.01,0.89,0.46,1.23c1.04,0.74,2.43,1.79,4.06,3.01c7.08,5.33,18.94,14.24,24.37,14.95
							c5.65,0.73,22.11-3.54,23.23-4.83c1.05-1.82,0.92-6.66-0.32-11.22c-1.23-4.5-3.23-7.82-5.51-9.1l0,0
							C1383.85,562.42,1376.4,558.84,1368.41,558.84z"/>
					</g>
				</g>
				<g>
					<path class="st8" d="M1297.07,565.6c-3.13-0.38-6.5,0.04-9.02,1.94c-4.29,3.22-4.79,9.44-4.17,14.76
						c1.45,12.35,7.03,24.18,15.63,33.16l2.04,0.62c5.12-6.12,9.08-13.21,11.6-20.78c0.99-2.97,1.76-6.04,1.81-9.16
						C1315.13,576.18,1306.94,566.79,1297.07,565.6z"/>
					<g>
						<path class="st5" d="M1301.82,616.98l-2.74-0.84l-0.14-0.15c-8.74-9.12-14.37-21.06-15.85-33.61
							c-0.6-5.08-0.31-11.89,4.48-15.49c2.4-1.8,5.8-2.55,9.59-2.09l0,0c10.25,1.24,18.76,11.01,18.59,21.33
							c-0.06,3.62-1.09,7.1-1.85,9.4c-2.53,7.61-6.59,14.89-11.74,21.04L1301.82,616.98z M1299.95,614.75l1.34,0.41
							c4.87-5.92,8.7-12.87,11.12-20.12c1.18-3.55,1.73-6.31,1.77-8.93c0.16-9.55-7.71-18.58-17.19-19.73l0,0
							c-3.37-0.41-6.37,0.23-8.45,1.78c-4.18,3.14-4.4,9.36-3.85,14.03C1286.1,594.35,1291.52,605.9,1299.95,614.75z"/>
					</g>
				</g>
				<g>
					<path class="st7" d="M1343.36,604.45c-2.63-1.09-5.32-2.12-8.14-2.52c-5.87-0.84-11.81,1.07-17.07,3.8
						c-5.26,2.73-10.06,6.27-15.29,9.06l0.55,0.59c0.63,7.19,7.41,12.05,13.69,15.61c7.65,4.35,16.75,8.38,24.97,5.25
						c4.36-1.66,7.79-5.15,10.49-8.96c2.2-3.1,4.07-6.75,3.63-10.52C1355.47,610.57,1349.11,606.84,1343.36,604.45z"/>
					<g>
						<path class="st5" d="M1335.86,638.13c-6.74,0-13.58-3.28-19.16-6.45c-6.13-3.48-13.24-8.43-14.06-15.96l-1.06-1.15l0.9-0.48
							c2.49-1.33,4.93-2.86,7.29-4.34c2.58-1.62,5.24-3.29,8.01-4.72c6.41-3.32,12.32-4.62,17.55-3.88
							c3.01,0.43,5.88,1.56,8.33,2.58c8.35,3.46,12.7,7.7,13.31,12.95c0.39,3.32-0.85,6.94-3.77,11.07
							c-3.34,4.71-6.89,7.73-10.85,9.24C1340.23,637.78,1338.05,638.13,1335.86,638.13z M1304.13,614.99l0.04,0.04l0.02,0.27
							c0.61,6.95,7.42,11.66,13.29,15c7.09,4.03,16.26,8.25,24.3,5.2c3.66-1.4,6.98-4.23,10.13-8.68c2.73-3.85,3.84-7.01,3.49-9.97
							c-0.54-4.63-4.58-8.44-12.35-11.67l0,0c-2.37-0.98-5.13-2.07-7.95-2.47c-4.9-0.71-10.48,0.55-16.59,3.71
							c-2.7,1.4-5.34,3.06-7.89,4.66C1308.52,612.4,1306.35,613.76,1304.13,614.99z"/>
					</g>
				</g>
				<g>
					<path class="st8" d="M1279.46,629.87c-0.68-5.3-1.7-10.68-4.38-15.3c-4.7-8.11-14.61-12.87-23.88-11.45
						c-4.62,0.7-9.3,3.12-11.25,7.37c-2.56,5.6,0.35,12.06,3.32,17.46c4.26,7.74,9.74,16.08,18.39,17.88
						c2.41,0.5,4.89,0.44,7.34,0.37c2.31-0.06,4.62-0.12,6.94-0.18l1.36-0.27c1.41-2.55,2.27-5.4,2.51-8.3
						C1280.04,634.92,1279.78,632.38,1279.46,629.87z"/>
					<g>
						<path class="st5" d="M1266.51,647.03c-1.66,0-3.34-0.09-5-0.43c-8.8-1.83-14.3-9.86-18.93-18.27
							c-3.15-5.71-6.01-12.34-3.34-18.17c1.85-4.05,6.28-6.97,11.85-7.82c9.66-1.48,19.79,3.4,24.68,11.84
							c2.8,4.82,3.81,10.35,4.48,15.6l0,0c0.3,2.32,0.6,5.02,0.37,7.74c-0.25,3-1.15,5.98-2.61,8.61l-0.18,0.32l-1.72,0.34
							l-7.07,0.2C1268.2,647,1267.36,647.03,1266.51,647.03z M1254.56,603.66c-1.08,0-2.16,0.08-3.24,0.24
							c-5.04,0.77-9.02,3.35-10.65,6.92c-2.37,5.19,0.33,11.38,3.29,16.74c4.45,8.08,9.7,15.79,17.86,17.49
							c2.33,0.48,4.78,0.42,7.16,0.35l6.94-0.18l0.86-0.18c1.25-2.36,2.03-5,2.25-7.66c0.21-2.56-0.07-5.17-0.36-7.41l0,0
							c-0.65-5.08-1.62-10.42-4.28-15C1270.37,608.01,1262.53,603.66,1254.56,603.66z"/>
					</g>
				</g>
				<g>
					<path class="st8" d="M1313.01,647.4c-11.93-5.17-26.08-4.94-37.84,0.61l3.67,1.36c-2.27,4.39-1.19,9.94,1.54,14.06
						c2.73,4.12,6.86,7.09,11,9.79c5.52,3.6,12.03,7.03,18.4,5.34c5.23-1.38,9-5.93,11.68-10.64c1.39-2.43,2.61-5.09,2.57-7.88
						C1323.97,654.12,1318.45,649.75,1313.01,647.4z"/>
					<g>
						<path class="st5" d="M1306.31,679.8c-5.44,0-10.74-2.91-15.36-5.92c-3.91-2.55-8.33-5.64-11.23-10.02
							c-2.97-4.48-3.69-9.89-1.96-14.05l-4.63-1.71l1.71-0.81c11.96-5.65,26.35-5.88,38.49-0.62l0,0
							c7.14,3.09,11.44,8.08,11.5,13.36c0.04,3.1-1.33,5.93-2.67,8.29c-3.47,6.09-7.56,9.79-12.17,11.01
							C1308.76,679.65,1307.53,679.8,1306.31,679.8z M1277.28,647.94l2.68,0.99l-0.41,0.8c-1.94,3.75-1.35,8.95,1.49,13.26
							c2.73,4.13,6.99,7.1,10.78,9.57c5.36,3.5,11.67,6.86,17.76,5.24c4.18-1.1,7.95-4.56,11.2-10.26c1.24-2.17,2.5-4.76,2.47-7.48
							c-0.09-6.86-8.1-10.86-10.55-11.93l0,0C1301.57,643.3,1288.47,643.26,1277.28,647.94z"/>
					</g>
				</g>
			</g>
			<g>
				<g>
					<path class="st5" d="M1418.78,515.95c-6.86-0.36-13.98,1.19-20.82,1.82c-7.1,0.66-13.74,0.39-20.8-0.61
						c-0.73-0.1-0.94,0.84-0.26,1.09c6.38,2.42,13.45,1.99,20.14,1.39c7.16-0.65,14.96-0.81,21.89-2.71
						C1419.5,516.78,1419.34,515.98,1418.78,515.95z"/>
				</g>
				<g>
					<path class="st5" d="M1375.32,514.47c-5.75-1.82-9.7-9.72-12.99-14.49c-2.72-3.94-5.14-8.12-8.16-11.84
						c-0.42-0.52-1.11,0.16-0.86,0.68c3.21,6.65,8.04,12.82,12.4,18.76c2.54,3.47,4.82,7.3,9.38,7.88
						C1375.73,515.54,1375.96,514.67,1375.32,514.47z"/>
				</g>
				<g>
					<path class="st5" d="M1326.24,533.93c-0.56-0.55-1.64,0.23-1.12,0.89c4.93,6.23,9.04,12.38,11.24,20.13
						c1.33,4.69,1.55,10.28,4.92,14.03c0.21,0.23,0.5-0.04,0.47-0.28C1339.91,556.53,1335.24,542.68,1326.24,533.93z"/>
				</g>
				<g>
					<path class="st5" d="M1388.13,581.74c-5.77-4.01-12.71-7.14-19.76-7.88c-8.69-0.92-16.01,0.43-23.77-4.77
						c-0.51-0.34-1.12,0.49-0.64,0.88c4.95,4.02,10.19,5.4,16.5,5.47c4.66,0.05,9.18,0.05,13.69,1.44
						c4.69,1.44,8.95,3.98,13.49,5.79C1388.26,582.91,1388.69,582.13,1388.13,581.74z"/>
				</g>
				<g>
					<path class="st5" d="M1300.79,593.76c-0.93-6.38-2.42-13.1-5.72-18.71c-0.16-0.28-0.56-0.08-0.5,0.21
						c2.03,9.24,4.91,17.8,5.21,27.4c0.14,4.36-1.36,11.07,3.72,13.07c0.58,0.23,1.18-0.44,0.69-0.94
						C1299.64,610.25,1301.68,599.84,1300.79,593.76z"/>
				</g>
				<g>
					<path class="st5" d="M1347.34,619.95c-5.77-2.41-11.93-3.79-18.16-4.33c-7.41-0.64-18.3,2.86-24.7-1.36
						c-0.42-0.27-0.92,0.4-0.52,0.72c5.05,4.08,11.1,2.34,17.14,2.15c8.92-0.28,17.25,1.56,25.64,4.36
						C1347.64,621.8,1348.22,620.32,1347.34,619.95z"/>
				</g>
				<g>
					<path class="st5" d="M1246.19,611.96c-0.36-0.24-0.79,0.34-0.45,0.62c12.49,10.5,26.74,18.11,31.88,34.67
						c0.34,1.1,2.06,0.61,1.71-0.48C1274.13,630.29,1259.89,621.14,1246.19,611.96z"/>
				</g>
				<g>
					<path class="st5" d="M1313.28,663.97c-5.9-3.27-12.12-5.83-18.01-9.26c-5.37-3.12-10.72-5.95-16.93-6.85
						c-0.8-0.12-1.11,1.02-0.3,1.24c7.23,2.03,13.39,5.7,19.78,9.49c4.6,2.73,9.72,6.15,15.19,6.48
						C1313.62,665.1,1313.76,664.24,1313.28,663.97z"/>
				</g>
			</g>
			<g>
				<path class="st5" d="M1384.09,445.2c1.39,19.35,0.45,38.55-4.71,57.32c-5.72,20.82-16.24,39.61-29.31,56.69
					c-24.58,32.12-56.55,58.2-77.78,92.95c-10.57,17.3-18.2,36.28-19.39,56.68c-0.04,0.65,1.06,0.78,1.15,0.13
					c11.37-84.97,104.8-123.9,128.06-203.64c5.69-19.51,7.73-40.39,4.69-60.53C1386.57,443.25,1383.98,443.65,1384.09,445.2z"/>
			</g>
		</g>
	</g>
</g>
<g id="Layer_3">
	<g>
		<path class="st9" d="M663.21,697.61c0.43,0.36,1.13,1.05,2.02,2.05c-0.62-0.92-1.22-1.84-1.82-2.75
			C663.36,697.07,663.31,697.32,663.21,697.61z"/>
		<g>
			<path class="st4" d="M725.84,643.93c-1.57,0.83-26.45,11.27-31.38,12.17c-4.92,0.93-16.95-0.19-24.22,0.81
				c-7.27,0.98-13.39,15.16-17.4,15.7c0,0,4.83,10.71,15.04,11.9c-3.21,0.08-6.27,0.67-9.02,1.85l-0.35-0.75
				c0,0-16.34-40.37-19.07-43.33c10.79-0.64,30.59-9.52,41.94-22.89c11.02-13.02,26.21-13.46,27.02-13.47
				c-35.78-17.99-55.1,5.87-55.1,5.87c-14.24,19.17-14.75,26.92-14.25,29.46c-2.13-5.83-4.37-12.22-6.63-19.19
				c3.46-2.67,23.24-19.37,37.66-58.66c13.29-36.26,20.6-48.62,22.34-51.2c-3.44,4.36-28.16,34.38-36.14,44.39
				c-8.46,10.64-22.46,31.83-24.5,63.58c-2.45-7.57-4.93-15.89-7.4-24.79c0.02-0.09,0.03-0.17,0.03-0.17s16.78-27.56,22.08-43.11
				c5.32-15.53,10.87-37.69,12.25-40.41c1.39-2.69,12.09-22.65,13.25-24.2c1.15-1.55-8.02,0.68-22.17,23.71
				c-14.16,23.04-23.02,41.47-24.82,65.8c-0.73,10.1-0.96,14.94-0.98,17.14c-2.19-7.94-4.34-16.39-6.47-25.36l0.66-1.3
				c0,0,18.59-28.7,18.88-49.19c0.41-29.44,15.27-61.82,15.27-61.82s-4.89,2.24-14.67,24.24c1.26-5.23,2.75-11.35,4.58-18.58
				c3.84-15.02,13.6-43.91,13.38-44.66c-0.3-0.54-6.3,11.63-23.85,47.73c-17.54,36.12-20,75.2-20,75.2s-0.09,0.39-0.16,0.91
				c-1.42-7.14-2.77-14.54-4.05-22.21c0.08,0.14,0.19-0.13,0.3-1.34c0.34-3.67,13.38-34.17,16.62-42.71
				c3.22-8.53,5.67-25.06,7.42-35c1.75-9.9,12.81-37.86,12.81-37.86s-1.6,0.38-9.2,15.49c-7.61,15.13-12.8,30.48-19.72,52.98
				c-6.94,22.53-8.5,46.13-8.5,46.13s0.03,0.57,0.08,1.15c-2.57-15.34-4.9-31.69-6.85-49.12c-0.09,0.18-0.01,2.51,0.34,6.61
				c-1.15-3.5-4.47-10.92-14.06-25.46c-11.62-17.63-25.34-29.11-29.2-35.01c-1.26-1.91,10.05,20.87,17.17,33.96
				c3.27,6.03,6.97,11.3,11.04,15.7c5.09,5.47,12.85,12.61,15.29,13.47c0.45,5.08,1.2,12.1,2.28,20.53
				c-13.45-30.69-32.68-40.97-40.64-47.34c-8.1-6.53-11.07-11.25-11.07-11.25s-8.2-12.54,8.24,17.6
				c22.04,40.32,40.22,42.86,43.73,42.97c0.93,7,2.08,14.97,3.46,23.59c-4.9-8.39-20.35-32.89-38.59-41.52
				c-22.65-10.74-26.48-30.61-25.93-24.04c0.67,7.65,9.91,20.79,9.91,20.79s13.55,20.71,22.43,27.47
				c8.69,6.58,13.81,12.06,32.56,19.68c1.22,7.31,2.61,15.1,4.19,23.21c-8.13-13.75-16.21-24.03-53.25-39.26
				c-5.7-2.33-8.97-1.84-19.64-14.28c-1.29-1.5,2.14,6.13,5.01,11.11c25.23,43.35,62.2,44.85,68.35,44.77
				c1.66,8.39,3.53,17.09,5.64,25.96c-4.79-4.61-15.94-14.82-25.84-19.98c-13.04-6.77-23.14-2.03-34.81-2.56
				c-11.69-0.52-24.31-6.75-24.31-6.75c15.74,35.5,82.36,33.58,85.82,32.83c2.01,8.3,4.22,16.74,6.65,25.16c-0.08,0-0.12,0-0.12,0
				c-4.07-4.05-63.87-23.83-63.87-23.83c5.04,13.73,23.55,24.6,31.31,27.84c15.11,6.3,30.55,0.14,33.51-1.19
				c2.15,7.34,4.46,14.68,6.95,21.91c-6.45-3.32-22.17-6.87-34.49-10.43c-14.97-4.3-20.14-13.43-20.14-13.43s6.67,32.74,39.66,36.83
				c5.92,0.72,13.05-7.04,16.17-9.55c2.25,6.38,4.63,12.7,7.16,18.87c-1.86,0.69-4.37,1.26-7.32,0.56
				c-8.58-2.04-24.39-1.62-24.39-1.62s-6.91-2.72-29.97,10.86c0,0-13.36,4.23-17.87,2.13c-4.53-2.09-10.51-5.56-9.95-3.82
				c0,0,11.99,28.95,62.63,18.47c6.64-1.37,26.61-16.81,27.86-24.23c4.85,11.6,10.2,22.66,16.13,32.87
				c0.75,1.83,2.14,4.56,4.49,7.42l-0.77-0.24c0,0-7.96,7.45-17.67,18.41c-9.73,10.93-9.84,16.24-12.29,20.9
				c-2.36,4.48-12.99,5-13.71,5.03c0.7,0.3,8.16,3.14,13.4,1.19c5.49-2.02,13.92-8.93,20.51-19c5.29-8.04,9.11-19.98,10.44-24.4
				c0.15,0.29,0.35,0.68,0.61,1.15c0,0,0.47,29.52,17.77,35.26c20.29,6.75,8.64,3,25.88,4.83c0,0-16.97-4.25-26.51-18.98
				c-5.43-8.38-11.64-16.51-15.19-20.55l-0.87-1.8c4.73,4.94,12.48,9.69,24.92,10.25c23.21,1.03,27.86-7.09,36.33-6.38
				c-6.44-1.56-18.69-4.72-23.54-7.4c-4.85-2.68-18.67-9.4-31.27-10.14c3.55-0.31,7.64-1.74,12.28-4.98
				c20.91-14.48,32.56-28.9,40.9-33.09C724.32,646.5,727.41,643.1,725.84,643.93z M612.03,543.06c0.17-0.18,0.41-0.49,0.72-1.07
				c4.71-8.45,8.25-14.98,10.87-20.1c-5.7,23.86-6.12,42.4-6.15,46.33C615.59,560.22,613.77,551.83,612.03,543.06z M665.24,699.66
				c-0.89-1.01-1.59-1.69-2.02-2.05c0.1-0.29,0.15-0.54,0.2-0.7C664.01,697.82,664.61,698.74,665.24,699.66z"/>
		</g>
	</g>
</g>
<g id="Layer_17">
	<g id="XMLID_102_">
		<path id="XMLID_103_" class="st5" d="M1077.95,867.48c0.9-7.21,6.2-125.71,5.6-125.71h-11.35L946.69,923.04
			c6.65,0,142.06-0.04,200.29-0.06c1.48,0,1.52-3.16,0.04-3.12C1067.06,922.24,1076.39,880.03,1077.95,867.48z"/>
	</g>
	<g id="XMLID_100_">
		<path class="st8" d="M1069.41,877.13c0.44-3.04,6.03-132.68,6.23-135.35l-159.78,0.55c0,0-2.06,115.73-4.04,126.36
			c-2,10.76-8.04,27.18-29.62,34.36c-25.76,8.57-85.77,15.63-86.61,16.22c-2.59,1.81-1.05,3.66,0.05,3.71l151.04,0.06
			c0,0,83.46-7.28,83.78-7.33C1050.54,912.81,1066.34,898.51,1069.41,877.13z"/>
		<g>
			<path class="st5" d="M946.76,923.88l-151.12-0.06c-1-0.05-1.94-0.83-2.22-1.81c-0.16-0.56-0.32-2.03,1.69-3.44
				c0.32-0.23,0.71-0.3,9.65-1.58c17.23-2.46,57.58-8.23,77.18-14.75c16.11-5.36,25.89-16.71,29.06-33.71
				c1.94-10.44,4-125.06,4.02-126.22l0.01-0.83l0.83,0l160.69-0.55l-0.07,0.91c-0.07,0.91-0.79,17.23-1.71,37.89
				c-1.79,40.3-4.23,95.49-4.53,97.52l0,0c-2.98,20.82-18.55,36.25-39.66,39.3C1030.26,916.59,960.7,922.66,946.76,923.88z
				 M795.98,920.02c-0.72,0.53-1.06,1.08-0.94,1.52c0.1,0.34,0.45,0.58,0.64,0.59l151,0.06c0.75-0.07,82.8-7.23,83.69-7.32
				c20.63-2.98,35.28-17.5,38.2-37.87l0,0c0.28-1.95,2.83-59.36,4.51-97.36c0.84-18.97,1.48-33.29,1.66-37.03l-158.05,0.54
				c-0.2,11.25-2.13,115.45-4.04,125.67c-3.29,17.66-13.45,29.43-30.19,35.01c-19.74,6.57-58.73,12.14-77.47,14.82
				C800.37,919.32,796.69,919.85,795.98,920.02z"/>
		</g>
	</g>
	<path class="st5" d="M1324.63,369.83H695.12c-10.43,0-23.91,9.41-24.69,20.72l-27.65,396c-0.79,11.31,5.95,23.32,17.56,23.32
		h633.39c11.97,0,19.43-12.02,20.22-23.32l28.15-396.24C1342.88,379,1335.06,369.83,1324.63,369.83z"/>
	<g>
		<path class="st10" d="M1318.77,369.83H690.71c-10.34,0-19.35,9.02-20.13,20.15l-27.47,393.37c-0.78,11.13,6.98,20.15,17.32,20.15
			h628.06c10.34,0,19.35-9.02,20.13-20.15l27.47-393.37C1336.86,378.85,1329.11,369.83,1318.77,369.83z"/>
		<g>
			<path class="st5" d="M1288.49,804.34H660.43c-4.97,0-9.58-2-12.97-5.64c-3.7-3.97-5.6-9.59-5.19-15.42l27.46-393.37
				c0.81-11.54,10.22-20.93,20.97-20.93h628.06c4.97,0,9.58,2,12.97,5.64c3.7,3.97,5.6,9.59,5.19,15.41l-27.47,393.37
				C1308.66,794.95,1299.25,804.34,1288.49,804.34z M690.71,370.67c-9.89,0-18.54,8.69-19.29,19.36l-27.47,393.37
				c-0.37,5.36,1.36,10.51,4.74,14.14c3.07,3.29,7.23,5.1,11.73,5.1h628.06c9.89,0,18.54-8.69,19.28-19.36l27.47-393.37
				c0.37-5.36-1.35-10.51-4.74-14.14c-3.07-3.29-7.23-5.1-11.73-5.1H690.71z"/>
		</g>
	</g>
	<g id="XMLID_96_">
		<g id="XMLID_97_">
			<g id="XMLID_98_">
				<polygon class="st11" points="1293.11,790.2 657.14,790.2 685.35,386.06 1321.33,386.06 				"/>
				<g>
					<path class="st5" d="M1293.93,791.08H656.2l0.07-0.94l28.27-404.96h637.73l-0.07,0.94L1293.93,791.08z M658.08,789.33h634.22
						l28.09-402.39H686.17L658.08,789.33z"/>
				</g>
			</g>
		</g>
	</g>
</g>
<g id="Layer_26">
	<g>
		<path class="st5" d="M741.58,747.9l3.52-50.97l16.43-0.01c6.23,0,10.27,0.25,12.13,0.76c2.85,0.76,5.17,2.42,6.95,4.98
			c1.78,2.56,2.54,5.87,2.26,9.92c-0.22,3.13-0.96,5.76-2.24,7.89c-1.28,2.13-2.83,3.81-4.65,5.03c-1.82,1.22-3.65,2.02-5.48,2.42
			c-2.48,0.49-6.04,0.73-10.67,0.73l-6.68,0l-1.33,19.22L741.58,747.9z M754.74,705.55l-1,14.46l5.6,0c4.04,0,6.75-0.27,8.15-0.81
			c1.4-0.53,2.52-1.37,3.37-2.5c0.85-1.14,1.33-2.46,1.43-3.96c0.13-1.85-0.31-3.38-1.31-4.59c-1-1.21-2.32-1.96-3.96-2.26
			c-1.21-0.23-3.66-0.35-7.34-0.34L754.74,705.55z"/>
		<path class="st5" d="M829.32,747.85l-11.14,0l-3.63-11.57l-20.27,0.01l-4.99,11.58l-10.86,0.01l23.27-50.98l10.83-0.01
			L829.32,747.85z M811.86,727.7l-5.68-18.91l-8.16,18.92L811.86,727.7z"/>
		<path class="st5" d="M859.64,729.1l0.59-8.58l22.07-0.01l-1.4,20.3c-2.29,2.09-5.53,3.93-9.7,5.51
			c-4.18,1.59-8.36,2.39-12.53,2.39c-5.31,0-9.85-1.11-13.64-3.35c-3.79-2.23-6.53-5.43-8.23-9.59c-1.7-4.16-2.37-8.68-2.04-13.57
			c0.37-5.31,1.8-10.03,4.3-14.15c2.5-4.12,5.96-7.29,10.38-9.5c3.37-1.69,7.48-2.54,12.32-2.54c6.3,0,11.12,1.32,14.48,3.97
			c3.36,2.65,5.38,6.32,6.07,11l-10.3,1.92c-0.54-2.5-1.75-4.48-3.62-5.92c-1.87-1.45-4.29-2.17-7.24-2.17
			c-4.48,0-8.13,1.43-10.97,4.28c-2.84,2.85-4.45,7.08-4.84,12.69c-0.42,6.05,0.61,10.59,3.07,13.61c2.47,3.02,5.87,4.53,10.21,4.53
			c2.14,0,4.33-0.42,6.54-1.27c2.22-0.85,4.14-1.87,5.77-3.08l0.45-6.47L859.64,729.1z"/>
		<path class="st5" d="M889.86,747.82l3.52-50.97l37.61-0.02l-0.6,8.62l-27.37,0.01l-0.78,11.3l25.46-0.01l-0.59,8.59l-25.46,0.01
			l-0.96,13.87l28.33-0.02l-0.59,8.59L889.86,747.82z"/>
		<path class="st5" d="M956.81,747.78l3.52-50.97l37.61-0.02l-0.59,8.62l-27.37,0.02l-0.78,11.3l25.46-0.01l-0.59,8.59l-25.46,0.01
			l-0.96,13.87l28.34-0.01l-0.59,8.59L956.81,747.78z"/>
		<path class="st5" d="M1004.1,747.76l3.52-50.97l21.55-0.01c5.42,0,9.33,0.45,11.72,1.37c2.39,0.91,4.25,2.54,5.56,4.88
			c1.31,2.34,1.87,5.02,1.66,8.03c-0.26,3.83-1.6,6.98-4.01,9.47c-2.41,2.49-5.86,4.07-10.36,4.72c2.12,1.3,3.85,2.72,5.19,4.27
			c1.33,1.55,3.09,4.31,5.26,8.27l5.51,9.94l-12.25,0.01l-6.64-11.09c-2.35-3.96-3.98-6.46-4.88-7.49c-0.9-1.03-1.87-1.74-2.93-2.12
			c-1.06-0.38-2.76-0.57-5.11-0.57l-2.08,0l-1.47,21.28L1004.1,747.76z M1016.38,718.34l7.58,0c4.91,0,8-0.21,9.25-0.63
			c1.25-0.42,2.26-1.14,3.02-2.16c0.76-1.02,1.2-2.3,1.3-3.83c0.12-1.72-0.24-3.1-1.08-4.15c-0.84-1.05-2.08-1.72-3.72-2
			c-0.82-0.12-3.31-0.17-7.46-0.17l-7.99,0L1016.38,718.34z"/>
		<path class="st5" d="M1055.28,747.73l3.52-50.97l21.55-0.01c5.42,0,9.33,0.45,11.72,1.37c2.39,0.91,4.25,2.54,5.56,4.88
			c1.31,2.34,1.87,5.02,1.66,8.03c-0.26,3.83-1.6,6.98-4.01,9.47c-2.41,2.49-5.86,4.07-10.36,4.72c2.13,1.3,3.86,2.72,5.19,4.27
			c1.33,1.55,3.09,4.31,5.26,8.27l5.51,9.94l-12.25,0.01l-6.64-11.09c-2.36-3.96-3.98-6.46-4.88-7.49c-0.9-1.03-1.88-1.74-2.93-2.12
			c-1.06-0.38-2.76-0.57-5.12-0.57h-2.08l-1.47,21.28L1055.28,747.73z M1067.54,718.31l7.58,0c4.91,0,8-0.21,9.25-0.63
			c1.25-0.42,2.26-1.14,3.02-2.16c0.76-1.02,1.2-2.3,1.3-3.83c0.12-1.72-0.24-3.1-1.08-4.15c-0.84-1.05-2.08-1.72-3.72-2
			c-0.82-0.12-3.31-0.17-7.46-0.17l-7.99,0L1067.54,718.31z"/>
		<path class="st5" d="M1106.07,722.53c0.36-5.19,1.43-9.55,3.22-13.07c1.33-2.6,3.07-4.93,5.2-6.99c2.14-2.06,4.43-3.59,6.87-4.59
			c3.25-1.35,6.94-2.02,11.07-2.02c7.47-0.01,13.29,2.32,17.46,6.98c4.16,4.66,5.96,11.13,5.39,19.43
			c-0.57,8.23-3.24,14.67-8.01,19.32c-4.77,4.65-10.88,6.98-18.33,6.98c-7.54,0-13.38-2.3-17.51-6.93
			C1107.3,737.01,1105.51,730.64,1106.07,722.53z M1116.65,722.18c-0.4,5.77,0.63,10.15,3.07,13.12c2.45,2.98,5.71,4.46,9.79,4.46
			c4.08,0,7.53-1.48,10.36-4.44c2.82-2.96,4.44-7.39,4.84-13.3c0.4-5.84-0.57-10.2-2.92-13.07c-2.35-2.87-5.64-4.31-9.86-4.3
			c-4.22,0-7.72,1.46-10.51,4.37C1118.65,711.93,1117.05,716.31,1116.65,722.18z"/>
		<path class="st5" d="M1161.56,747.67l3.52-50.97l21.55-0.01c5.42,0,9.33,0.45,11.72,1.37c2.39,0.91,4.25,2.54,5.56,4.88
			c1.31,2.34,1.87,5.02,1.66,8.03c-0.26,3.83-1.6,6.98-4.01,9.47c-2.41,2.49-5.86,4.07-10.36,4.72c2.12,1.3,3.85,2.72,5.19,4.27
			c1.33,1.55,3.09,4.31,5.26,8.27l5.51,9.94l-12.25,0.01l-6.64-11.09c-2.36-3.96-3.98-6.46-4.88-7.49c-0.9-1.03-1.87-1.74-2.93-2.12
			c-1.06-0.38-2.76-0.57-5.11-0.57h-2.08l-1.47,21.28L1161.56,747.67z M1173.83,718.25l7.58,0c4.91,0,8-0.21,9.25-0.63
			c1.25-0.42,2.26-1.14,3.02-2.16c0.76-1.02,1.2-2.29,1.3-3.83c0.12-1.71-0.24-3.1-1.08-4.15c-0.84-1.05-2.08-1.72-3.72-2
			c-0.82-0.12-3.31-0.17-7.46-0.17l-7.99,0.01L1173.83,718.25z"/>
	</g>
</g>
<g id="Layer_25">
	<path class="st5" d="M900.83,670.27l1.33-19.32l-39.11,0.02l1.11-16.11l45.67-61l15.38-0.01l-4.2,60.91l11.86-0.01l-1.12,16.18
		l-11.86,0.01l-1.33,19.32L900.83,670.27z M903.28,634.77l2.27-32.81l-24.23,32.83L903.28,634.77z"/>
	<path class="st5" d="M976.77,573.82c9.26-0.01,16.26,3.31,21.02,9.94c5.67,7.86,7.88,20.89,6.62,39.1
		c-1.25,18.17-5.28,31.22-12.09,39.17c-5.62,6.55-13.06,9.83-22.32,9.84c-9.3,0.01-16.55-3.58-21.75-10.76
		c-5.19-7.18-7.16-19.98-5.88-38.41c1.25-18.08,5.27-31.09,12.08-39.04C960.08,577.1,967.52,573.83,976.77,573.82z M975.72,589.08
		c-2.22,0-4.24,0.71-6.08,2.13c-1.84,1.42-3.36,3.97-4.57,7.64c-1.59,4.76-2.77,12.77-3.55,24.04c-0.78,11.26-0.75,19.01,0.09,23.22
		c0.84,4.21,2.07,7.02,3.69,8.41c1.62,1.4,3.54,2.1,5.75,2.1c2.22,0,4.24-0.71,6.08-2.13c1.84-1.42,3.36-3.96,4.57-7.63
		c1.58-4.72,2.77-12.71,3.54-23.97c0.78-11.27,0.75-19-0.09-23.22c-0.84-4.21-2.07-7.03-3.69-8.45
		C979.85,589.79,977.93,589.08,975.72,589.08z"/>
	<path class="st5" d="M1049.31,670.19l1.33-19.32l-39.11,0.02l1.11-16.11l45.67-61l15.38-0.01l-4.2,60.91l11.86-0.01l-1.12,16.18
		l-11.86,0.01l-1.33,19.32L1049.31,670.19z M1051.76,634.69l2.27-32.81l-24.23,32.83L1051.76,634.69z"/>
</g>
<g id="Layer_24">
	<g>
		<g>
			<path class="st6" d="M838.88,442.69c-0.99-2.55-2.42-4.81-4.19-6.75l3.12-5.24l-7.48-5.07l-3.93,4.69
				c-2.48-0.94-5.16-1.45-7.95-1.46l-1.35-5.67l-9.25,1.99l0.34,5.88c-2.61,1.17-4.98,2.77-7.05,4.69l-5.02-2.77l-5.59,7.88
				l4.43,3.63c-1.12,2.56-1.82,5.28-2.03,8.09l-5.76,1.75l1.34,9.16l5.91-0.76c0.99,2.54,2.42,4.82,4.2,6.76l-3.13,5.25l7.49,5.07
				l3.93-4.69c2.48,0.94,5.16,1.45,7.95,1.46l1.35,5.67l9.25-1.99l-0.34-5.88c2.62-1.17,4.98-2.77,7.04-4.69l5.04,2.77l5.58-7.88
				l-4.42-3.62c1.12-2.56,1.82-5.3,2.03-8.09l5.76-1.76l-1.35-9.16L838.88,442.69z M830.25,449.79c1.09,7.44-4.12,14.78-11.64,16.4
				c-7.51,1.62-14.49-3.1-15.58-10.54c-1.09-7.44,4.12-14.78,11.63-16.4C822.18,437.62,829.16,442.35,830.25,449.79z"/>
		</g>
		<g>
			<g>
				<path class="st5" d="M815.57,483.24l-1.4-5.84c-2.41-0.08-4.76-0.51-7.01-1.3l-4.04,4.82l-8.78-5.94l3.22-5.4
					c-1.53-1.76-2.77-3.76-3.69-5.93l-6.09,0.78l-1.56-10.7l5.91-1.8c0.24-2.46,0.84-4.87,1.79-7.2l-4.55-3.73l6.48-9.13l5.16,2.84
					c1.92-1.7,4.03-3.11,6.29-4.18l-0.35-6.03l10.77-2.32l1.39,5.84c2.41,0.08,4.76,0.51,7.01,1.3l4.04-4.82l8.78,5.94l-3.21,5.4
					c1.54,1.77,2.77,3.76,3.69,5.93l6.09-0.78l1.57,10.7l-5.91,1.8c-0.24,2.45-0.84,4.87-1.79,7.2l4.54,3.72l-6.47,9.14l-5.17-2.84
					c-1.9,1.7-4.01,3.1-6.29,4.19l0.35,6.03L815.57,483.24z M806.63,474.11l0.56,0.21c2.44,0.92,5.01,1.4,7.65,1.41l0.66,0
					l1.32,5.51l7.73-1.66l-0.33-5.74l0.53-0.24c2.49-1.12,4.78-2.65,6.81-4.54l0.45-0.42l4.91,2.7l4.69-6.62l-4.3-3.53l0.26-0.59
					c1.1-2.52,1.76-5.15,1.96-7.82l0.04-0.58l5.61-1.71l-1.12-7.62l-5.74,0.73l-0.24-0.62c-0.94-2.4-2.29-4.59-4.03-6.49l-0.42-0.46
					l3.03-5.1l-6.19-4.19l-3.83,4.57l-0.56-0.21c-2.44-0.92-5.01-1.4-7.65-1.41l-0.66,0l-1.32-5.51l-7.74,1.67l0.33,5.74l-0.53,0.24
					c-2.48,1.11-4.77,2.64-6.82,4.54l-0.45,0.42l-4.9-2.7l-4.7,6.62l4.31,3.53l-0.26,0.59c-1.1,2.51-1.76,5.14-1.96,7.82l-0.04,0.58
					l-5.62,1.71l1.11,7.62l5.74-0.74l0.24,0.62c0.94,2.42,2.3,4.61,4.03,6.49l0.43,0.46l-3.04,5.1l6.2,4.19L806.63,474.11z
					 M815.64,467.35c-2.82,0-5.52-0.83-7.83-2.43c-3.07-2.13-5.06-5.38-5.62-9.16c-1.15-7.86,4.36-15.64,12.29-17.35
					c3.93-0.84,7.82-0.1,10.99,2.09c3.07,2.13,5.06,5.38,5.62,9.16c1.15,7.86-4.36,15.64-12.3,17.34
					C817.73,467.24,816.68,467.35,815.64,467.35z M817.63,439.77c-0.92,0-1.85,0.1-2.79,0.3c-7.08,1.52-12,8.45-10.97,15.45
					c0.48,3.31,2.23,6.15,4.91,8.01c2.77,1.92,6.2,2.57,9.66,1.83c7.08-1.52,12-8.45,10.98-15.45c-0.48-3.31-2.23-6.15-4.91-8.01
					C822.48,440.49,820.11,439.77,817.63,439.77z"/>
			</g>
		</g>
	</g>
</g>
<g id="Layer_23">
	<g>
		<g>
			<g>
				<path class="st4" d="M843.5,532.4c-2.22-5.69-5.41-10.76-9.38-15.1l6.97-11.73l-16.74-11.33l-8.8,10.49
					c-5.55-2.1-11.54-3.25-17.78-3.27l-3.03-12.68l-20.69,4.45l0.76,13.16c-5.84,2.62-11.14,6.19-15.77,10.49l-11.24-6.19
					l-12.51,17.61l9.9,8.11c-2.5,5.73-4.06,11.81-4.53,18.1l-12.88,3.92l2.99,20.49l13.22-1.7c2.21,5.68,5.41,10.78,9.39,15.11
					l-6.99,11.73l16.75,11.33l8.8-10.5c5.55,2.1,11.55,3.24,17.77,3.27l3.03,12.68l20.69-4.45l-0.76-13.16
					c5.85-2.63,11.14-6.19,15.75-10.49l11.26,6.2l12.49-17.62l-9.88-8.1c2.5-5.73,4.06-11.84,4.53-18.1l12.88-3.93l-3.01-20.48
					L843.5,532.4z M824.2,548.28c2.44,16.63-9.21,33.05-26.03,36.67c-16.8,3.62-32.41-6.94-34.85-23.58
					c-2.44-16.64,9.21-33.06,26.01-36.67C806.15,521.07,821.76,531.64,824.2,548.28z"/>
			</g>
		</g>
		<g>
			<g>
				<path class="st5" d="M792.14,621.86l-3.07-12.84c-5.81-0.1-11.47-1.14-16.84-3.11l-8.9,10.62l-18.04-12.21l7.08-11.88
					c-3.76-4.2-6.74-9-8.88-14.29l-13.39,1.72l-3.22-22.03l13.02-3.97c0.5-5.87,1.94-11.65,4.3-17.21l-10.02-8.21l13.4-18.87
					l11.37,6.26c4.53-4.13,9.58-7.48,15.02-9.98l-0.77-13.3l22.21-4.78l3.07,12.84c5.8,0.1,11.46,1.14,16.84,3.11l8.9-10.62
					l18.03,12.21l-7.06,11.88c3.77,4.22,6.75,9.02,8.88,14.28l13.39-1.7l3.23,22.02l-13.02,3.97c-0.5,5.87-1.94,11.66-4.3,17.21
					l10,8.2l-13.38,18.88l-11.38-6.27c-4.5,4.12-9.54,7.47-15,9.99l0.76,13.3L792.14,621.86z M771.7,603.91l0.56,0.21
					c5.56,2.11,11.44,3.19,17.48,3.21l0.66,0l2.99,12.52l19.18-4.13l-0.75-13.02l0.53-0.24c5.68-2.55,10.9-6.03,15.52-10.34
					l0.45-0.42l11.13,6.13l11.59-16.36l-9.77-8.01l0.26-0.59c2.51-5.73,4.01-11.73,4.46-17.82l0.04-0.58l12.73-3.88l-2.78-18.94
					l-13.04,1.66l-0.24-0.61c-2.14-5.5-5.24-10.49-9.21-14.83l-0.42-0.46l6.89-11.58l-15.44-10.46l-8.69,10.37l-0.56-0.21
					c-5.57-2.11-11.45-3.19-17.48-3.22l-0.66,0l-2.99-12.52l-19.18,4.13l0.75,13.02l-0.53,0.24c-5.65,2.53-10.88,6.01-15.54,10.33
					l-0.45,0.42l-11.11-6.12l-11.61,16.35l9.78,8.02l-0.26,0.59c-2.51,5.74-4.01,11.74-4.46,17.82l-0.04,0.58l-12.74,3.88
					l2.77,18.95l13.05-1.68l0.24,0.62c2.16,5.54,5.26,10.53,9.22,14.84l0.43,0.46l-6.9,11.59l15.46,10.46L771.7,603.91z
					 M791.53,586.51c-6.09,0-11.93-1.79-16.92-5.25c-6.62-4.6-10.93-11.62-12.12-19.78c-2.5-17.05,9.47-33.93,26.67-37.62
					c8.49-1.83,16.93-0.22,23.75,4.52c6.62,4.6,10.93,11.62,12.12,19.77l0,0c2.5,17.04-9.47,33.91-26.68,37.62
					C796.06,586.26,793.78,586.51,791.53,586.51z M795.97,524.82c-2.13,0-4.29,0.23-6.46,0.7c-16.35,3.51-27.73,19.54-25.35,35.72
					c1.13,7.69,5.18,14.31,11.41,18.63c6.44,4.47,14.4,5.97,22.42,4.25c16.36-3.52,27.74-19.54,25.37-35.72l0,0
					c-1.13-7.69-5.18-14.3-11.41-18.63C807.25,526.51,801.73,524.82,795.97,524.82z"/>
			</g>
		</g>
	</g>
</g>
<g id="Layer_22">
	<g>
		<g>
			<g>
				<path class="st12" d="M935.4,463.25c-1.74-4.46-4.24-8.43-7.35-11.83l5.46-9.19l-13.11-8.88l-6.89,8.22
					c-4.35-1.65-9.04-2.55-13.93-2.56l-2.37-9.93L881,432.57l0.59,10.31c-4.57,2.05-8.73,4.85-12.36,8.22l-8.8-4.85l-9.8,13.8
					l7.76,6.36c-1.96,4.49-3.18,9.25-3.55,14.18l-10.09,3.07l2.35,16.05l10.36-1.33c1.73,4.45,4.24,8.45,7.35,11.84l-5.47,9.19
					l13.12,8.88l6.89-8.22c4.35,1.65,9.05,2.54,13.93,2.56l2.37,9.93l16.21-3.49l-0.59-10.31c4.58-2.06,8.73-4.85,12.34-8.22
					l8.82,4.86l9.78-13.8l-7.74-6.35c1.96-4.49,3.18-9.28,3.55-14.18l10.09-3.08l-2.36-16.05L935.4,463.25z M920.28,475.69
					c1.91,13.03-7.22,25.9-20.39,28.73c-13.16,2.84-25.39-5.44-27.3-18.47c-1.91-13.04,7.21-25.9,20.38-28.73
					C906.14,454.38,918.37,462.66,920.28,475.69z"/>
			</g>
		</g>
		<g>
			<g>
				<path class="st5" d="M895.03,533.56l-2.41-10.1c-4.48-0.09-8.84-0.9-12.99-2.4l-7,8.35l-14.42-9.75l5.56-9.34
					c-2.89-3.24-5.19-6.95-6.85-11.02l-10.53,1.35l-2.57-17.59l10.23-3.12c0.4-4.53,1.51-9,3.32-13.29l-7.87-6.45l10.69-15.06
					l8.93,4.92c3.51-3.17,7.41-5.77,11.6-7.71l-0.6-10.45l17.73-3.82l2.41,10.1c4.47,0.09,8.83,0.9,12.99,2.4l7-8.35l14.41,9.75
					l-5.55,9.34c2.89,3.27,5.19,6.97,6.84,11.01l10.53-1.34l2.58,17.58l-10.24,3.12c-0.4,4.54-1.51,9-3.32,13.29l7.86,6.45
					l-10.67,15.06l-8.95-4.93c-3.48,3.17-7.38,5.76-11.59,7.72l0.6,10.46L895.03,533.56z M879.1,519.06l0.56,0.21
					c4.33,1.64,8.92,2.49,13.63,2.51l0.66,0l2.34,9.78l14.69-3.16l-0.58-10.17l0.53-0.24c4.43-1.99,8.5-4.7,12.11-8.07l0.45-0.42
					l8.7,4.79l8.89-12.55l-7.62-6.26l0.26-0.59c1.95-4.47,3.12-9.15,3.48-13.9l0.04-0.58l9.95-3.03l-2.13-14.51l-10.18,1.3
					l-0.24-0.62c-1.67-4.28-4.08-8.17-7.18-11.56l-0.42-0.46l5.38-9.04l-11.82-8.01l-6.79,8.1l-0.56-0.21
					c-4.34-1.65-8.93-2.49-13.63-2.51l-0.66,0l-2.34-9.77l-14.69,3.16l0.59,10.17l-0.53,0.24c-4.41,1.98-8.49,4.69-12.13,8.07
					l-0.45,0.42l-8.68-4.78l-8.91,12.54l7.64,6.26l-0.26,0.59c-1.96,4.48-3.13,9.16-3.48,13.9l-0.04,0.58l-9.95,3.03l2.12,14.51
					l10.19-1.31l0.24,0.62c1.68,4.32,4.1,8.21,7.19,11.57l0.43,0.46l-5.39,9.05l11.83,8L879.1,519.06z M894.69,505.83
					c-4.81,0-9.42-1.41-13.36-4.14c-5.23-3.63-8.63-9.17-9.58-15.62c-1.97-13.45,7.47-26.76,21.04-29.68
					c6.71-1.44,13.36-0.18,18.75,3.57c5.23,3.63,8.63,9.18,9.57,15.62c1.97,13.45-7.47,26.76-21.05,29.68
					C898.26,505.64,896.46,505.83,894.69,505.83z M898.17,457.5c-1.66,0-3.34,0.18-5.02,0.54c-12.72,2.73-21.57,15.2-19.72,27.78
					c0.88,5.97,4.03,11.11,8.87,14.47c5,3.47,11.19,4.64,17.42,3.3c12.73-2.74,21.58-15.2,19.73-27.78l0,0
					c-0.87-5.97-4.02-11.11-8.86-14.47C906.93,458.81,902.64,457.5,898.17,457.5z"/>
			</g>
		</g>
	</g>
</g>
<g id="Layer_21">
	<g>
		<g>
			<path class="st4" d="M1007.56,502.66c-1.18-3.03-2.89-5.74-5-8.05l3.72-6.25l-8.92-6.04l-4.69,5.59
				c-2.96-1.12-6.15-1.73-9.47-1.74l-1.61-6.76l-11.03,2.37l0.4,7.01c-3.11,1.4-5.94,3.3-8.4,5.59l-5.99-3.3l-6.67,9.39l5.28,4.32
				c-1.33,3.05-2.16,6.29-2.41,9.65l-6.86,2.09l1.6,10.92l7.05-0.91c1.18,3.03,2.88,5.75,5,8.05l-3.72,6.25l8.93,6.04l4.69-5.59
				c2.96,1.12,6.16,1.73,9.47,1.74l1.62,6.76l11.03-2.37l-0.4-7.01c3.12-1.4,5.94-3.3,8.39-5.59l6,3.3l6.65-9.39l-5.27-4.32
				c1.34-3.05,2.16-6.31,2.41-9.65l6.86-2.09l-1.6-10.92L1007.56,502.66z M997.27,511.13c1.3,8.87-4.91,17.62-13.87,19.55
				c-8.95,1.93-17.27-3.7-18.57-12.57c-1.3-8.87,4.91-17.62,13.86-19.55C987.66,496.63,995.98,502.26,997.27,511.13z"/>
		</g>
		<g>
			<g>
				<path class="st5" d="M979.89,550.81l-1.66-6.92c-2.94-0.08-5.8-0.61-8.54-1.58l-4.8,5.72l-10.22-6.91l3.81-6.4
					c-1.88-2.14-3.39-4.57-4.5-7.23l-7.22,0.93l-1.82-12.46l7.01-2.14c0.28-2.98,1.01-5.92,2.18-8.75l-5.4-4.42l7.56-10.65
					l6.12,3.37c2.33-2.08,4.89-3.79,7.65-5.08l-0.41-7.16l12.55-2.7l1.65,6.92c2.93,0.08,5.8,0.61,8.54,1.58l4.8-5.73l10.21,6.92
					l-3.81,6.4c1.88,2.16,3.39,4.58,4.49,7.23l7.22-0.92l1.83,12.45l-7.01,2.14c-0.28,2.99-1.02,5.93-2.18,8.75l5.39,4.42
					l-7.55,10.65l-6.13-3.37c-2.31,2.07-4.87,3.78-7.64,5.08l0.41,7.16L979.89,550.81z M969.17,540.31l0.56,0.21
					c2.92,1.1,6,1.67,9.18,1.69l0.66,0l1.58,6.6l9.51-2.05l-0.39-6.87l0.53-0.24c2.99-1.34,5.73-3.17,8.16-5.44l0.45-0.42l5.88,3.23
					l5.76-8.13l-5.15-4.22l0.26-0.59c1.32-3.01,2.1-6.16,2.34-9.37l0.04-0.58l6.72-2.05l-1.38-9.38l-6.87,0.88l-0.24-0.61
					c-1.12-2.88-2.75-5.5-4.83-7.78l-0.42-0.46l3.63-6.11l-7.63-5.17l-4.58,5.47l-0.56-0.21c-2.93-1.11-6.02-1.68-9.18-1.69l-0.66,0
					l-1.58-6.6l-9.51,2.05l0.4,6.87l-0.53,0.24c-2.97,1.33-5.72,3.16-8.18,5.44l-0.45,0.42l-5.86-3.23l-5.77,8.13l5.16,4.23
					l-0.26,0.59c-1.32,3.02-2.11,6.17-2.34,9.37l-0.04,0.58l-6.72,2.05l1.37,9.38l6.88-0.88l0.24,0.62
					c1.13,2.91,2.76,5.53,4.84,7.79l0.43,0.46l-3.64,6.11l7.64,5.16L969.17,540.31z M979.86,531.9c-3.32,0-6.51-0.98-9.24-2.86
					c-3.62-2.51-5.98-6.35-6.63-10.81c-1.36-9.29,5.15-18.48,14.52-20.5c4.64-0.99,9.24-0.12,12.97,2.47
					c3.62,2.51,5.97,6.35,6.63,10.81l0,0c1.36,9.28-5.16,18.48-14.53,20.49C982.33,531.77,981.09,531.9,979.86,531.9z
					 M982.23,499.02c-1.11,0-2.23,0.12-3.36,0.36c-8.52,1.83-14.44,10.17-13.21,18.6c0.58,3.99,2.69,7.42,5.92,9.66
					c3.34,2.32,7.47,3.1,11.64,2.2c8.52-1.83,14.45-10.17,13.21-18.6l0,0c-0.58-3.99-2.69-7.42-5.92-9.66
					C988.08,499.89,985.22,499.02,982.23,499.02z"/>
			</g>
		</g>
	</g>
</g>
<g id="Layer_20">
	<g>
		<g>
			<path class="st12" d="M1167.35,443.06c-0.8-2.06-1.95-3.89-3.38-5.45l2.52-4.23l-6.04-4.09l-3.17,3.79
				c-2-0.76-4.16-1.17-6.42-1.18l-1.09-4.58l-7.47,1.61l0.27,4.75c-2.11,0.95-4.02,2.24-5.69,3.79l-4.06-2.23l-4.51,6.36l3.57,2.93
				c-0.9,2.07-1.47,4.26-1.63,6.53l-4.65,1.42l1.08,7.39l4.77-0.61c0.8,2.05,1.95,3.89,3.39,5.45l-2.52,4.24l6.05,4.09l3.17-3.79
				c2,0.76,4.17,1.17,6.42,1.18l1.09,4.58l7.47-1.61l-0.27-4.75c2.11-0.95,4.02-2.24,5.68-3.79l4.06,2.24l4.51-6.36l-3.57-2.92
				c0.9-2.07,1.47-4.28,1.63-6.53l4.65-1.42l-1.08-7.39L1167.35,443.06z M1160.39,448.79c0.88,6-3.32,11.93-9.39,13.23
				c-6.07,1.31-11.7-2.51-12.58-8.51c-0.88-6.01,3.32-11.93,9.39-13.24C1153.87,438.97,1159.51,442.79,1160.39,448.79z"/>
		</g>
		<g>
			<g>
				<path class="st5" d="M1148.41,475.99l-1.13-4.74c-1.88-0.07-3.72-0.41-5.48-1.02l-3.29,3.92l-7.34-4.96l2.61-4.39
					c-1.19-1.39-2.15-2.94-2.88-4.63l-4.95,0.64l-1.31-8.94l4.8-1.46c0.2-1.92,0.67-3.81,1.4-5.64l-3.7-3.03l5.41-7.61l4.19,2.31
					c1.51-1.33,3.16-2.43,4.93-3.28l-0.28-4.9l8.98-1.93l1.13,4.74c1.88,0.07,3.72,0.41,5.48,1.02l3.29-3.92l7.33,4.96l-2.61,4.39
					c1.19,1.39,2.15,2.95,2.88,4.63l4.95-0.63l1.31,8.93l-4.8,1.46c-0.2,1.92-0.67,3.81-1.4,5.64l3.69,3.02l-5.4,7.62l-4.2-2.31
					c-1.5,1.32-3.15,2.42-4.93,3.28l0.28,4.9L1148.41,475.99z M1141.27,468.23l0.56,0.21c1.95,0.74,4.01,1.12,6.12,1.13l0.67,0
					l1.05,4.42l5.95-1.28l-0.26-4.61l0.53-0.24c1.99-0.9,3.83-2.12,5.45-3.64l0.45-0.42l3.94,2.17l3.61-5.1l-3.45-2.83l0.26-0.59
					c0.88-2.01,1.41-4.12,1.57-6.26l0.04-0.58l4.51-1.37l-0.86-5.85l-4.6,0.59l-0.24-0.62c-0.75-1.92-1.83-3.66-3.22-5.18
					l-0.42-0.46l2.43-4.09l-4.75-3.22l-3.07,3.66l-0.56-0.21c-1.95-0.74-4.01-1.12-6.12-1.13l-0.66,0l-1.06-4.42l-5.95,1.28
					l0.27,4.61l-0.53,0.24c-1.98,0.89-3.82,2.11-5.46,3.63l-0.45,0.42l-3.93-2.17l-3.62,5.1l3.46,2.83l-0.26,0.59
					c-0.88,2.01-1.41,4.12-1.56,6.26l-0.04,0.58l-4.51,1.37l0.86,5.85l4.6-0.59l0.24,0.62c0.75,1.93,1.84,3.68,3.22,5.19l0.43,0.46
					l-2.44,4.09l4.75,3.21L1141.27,468.23z M1148.6,463.13c-2.31,0-4.52-0.68-6.41-1.99c-2.52-1.74-4.15-4.41-4.6-7.5
					c-0.94-6.43,3.57-12.79,10.05-14.18c3.22-0.7,6.41-0.08,9,1.71c2.51,1.74,4.15,4.41,4.6,7.5l0,0
					c0.94,6.43-3.57,12.79-10.05,14.18C1150.31,463.04,1149.45,463.13,1148.6,463.13z M1150.2,440.86c-0.73,0-1.47,0.08-2.22,0.24
					c-5.63,1.21-9.55,6.72-8.73,12.29c0.38,2.63,1.77,4.88,3.89,6.36c2.2,1.53,4.92,2.04,7.67,1.45c5.63-1.21,9.55-6.72,8.73-12.29
					l0,0c-0.38-2.62-1.77-4.88-3.89-6.36C1154.05,441.44,1152.17,440.86,1150.2,440.86z"/>
			</g>
		</g>
	</g>
</g>
<g id="Layer_19">
	<g>
		<g>
			<g>
				<path class="st12" d="M1113.9,491.71c0.17-4.84-0.52-9.51-1.96-13.88l8.32-6.49l-8.16-13.33l-9.21,5.04
					c-3.2-3.21-6.99-5.85-11.29-7.74l1.7-10.19l-15.62-2.96l-3.41,9.86c-4.81,0.16-9.55,1.19-14.02,2.94l-5.91-7.91l-13.91,9.14
					l4.41,8.92c-3.44,3.44-6.34,7.43-8.54,11.89l-10.06-1l-4.06,15.9l9.63,2.73c-0.18,4.82,0.51,9.52,1.96,13.88l-8.34,6.49
					l8.18,13.33l9.21-5.04c3.2,3.21,7,5.85,11.29,7.74l-1.7,10.19l15.62,2.96l3.42-9.86c4.82-0.16,9.54-1.18,14.01-2.95l5.92,7.92
					l13.89-9.15l-4.4-8.9c3.44-3.44,6.35-7.45,8.54-11.89l10.06,1l4.05-15.9L1113.9,491.71z M1095.82,497.53
					c-3.3,12.91-16.25,21.43-28.94,19.02c-12.68-2.4-20.3-14.83-17-27.74c3.3-12.92,16.25-21.44,28.93-19.03
					C1091.51,472.19,1099.12,484.62,1095.82,497.53z"/>
			</g>
		</g>
		<g>
			<g>
				<path class="st5" d="M1068.58,545.15l-17.14-3.25l1.73-10.37c-3.9-1.8-7.42-4.22-10.49-7.2l-9.37,5.12l-8.99-14.67l8.47-6.59
					c-1.31-4.15-1.93-8.5-1.83-12.95l-9.79-2.78l4.45-17.4l10.21,1.01c2.09-4.09,4.78-7.84,8.01-11.16l-4.47-9.05l15.19-9.98l6,8.04
					c4.29-1.61,8.7-2.53,13.12-2.74l3.47-10.01l17.15,3.25l-1.73,10.37c3.89,1.79,7.41,4.21,10.49,7.2l9.37-5.12l8.98,14.66
					l-8.45,6.59c1.31,4.17,1.92,8.52,1.83,12.94l9.78,2.79l-4.44,17.4l-10.21-1.01c-2.09,4.09-4.78,7.84-8.01,11.16l4.46,9.04
					l-15.18,9.99l-6.01-8.04c-4.26,1.61-8.66,2.54-13.11,2.75L1068.58,545.15z M1053.37,540.55l14.09,2.67l3.37-9.72l0.58-0.02
					c4.65-0.16,9.27-1.13,13.73-2.89l0.6-0.24l5.83,7.8l12.61-8.3l-4.34-8.78l0.43-0.43c3.44-3.44,6.26-7.36,8.38-11.67l0.26-0.52
					l9.92,0.98l3.67-14.4l-9.47-2.7l0.02-0.66c0.17-4.65-0.48-9.22-1.91-13.58l-0.19-0.56l8.2-6.39l-7.35-12l-9.06,4.96l-0.45-0.45
					c-3.19-3.2-6.9-5.75-11.03-7.57l-0.6-0.26l1.67-10.03l-14.09-2.67l-3.36,9.72l-0.58,0.02c-4.63,0.16-9.26,1.12-13.74,2.88
					l-0.6,0.23l-5.82-7.79l-12.61,8.29l4.35,8.79l-0.43,0.43c-3.43,3.43-6.25,7.36-8.38,11.67l-0.26,0.52l-9.92-0.99l-3.68,14.4
					l9.48,2.69l-0.02,0.66c-0.17,4.68,0.47,9.26,1.92,13.59l0.19,0.57l-8.21,6.39l7.36,12l9.06-4.96l0.45,0.45
					c3.18,3.19,6.9,5.74,11.03,7.56l0.6,0.26L1053.37,540.55z M1071.2,517.81c-1.49,0-2.98-0.14-4.47-0.42
					c-6.23-1.18-11.5-4.72-14.85-9.98c-3.5-5.5-4.5-12.18-2.81-18.8c3.4-13.32,16.81-22.14,29.91-19.65
					c6.23,1.18,11.51,4.73,14.86,10c3.5,5.5,4.5,12.18,2.81,18.79C1093.63,509.54,1082.75,517.81,1071.2,517.81z M1074.49,470.22
					c-10.8,0-20.97,7.74-23.79,18.8c-1.57,6.16-0.65,12.37,2.6,17.47c3.1,4.86,7.98,8.14,13.74,9.23
					c12.24,2.32,24.78-5.93,27.96-18.4c1.57-6.16,0.65-12.36-2.6-17.47c-3.1-4.87-7.98-8.15-13.75-9.25
					C1077.27,470.35,1075.87,470.22,1074.49,470.22z"/>
			</g>
		</g>
	</g>
</g>
<g id="Layer_18">
	<g>
		<g>
			<g>
				<path class="st6" d="M1235.43,547c0.34-6.76-0.54-13.31-2.47-19.44l11.74-8.92l-11.15-18.8l-12.95,6.88
					c-4.41-4.55-9.65-8.31-15.61-11.04l2.57-14.22l-21.74-4.43l-4.95,13.73c-6.72,0.13-13.35,1.48-19.63,3.84l-8.1-11.17
					l-19.58,12.51l5.98,12.55c-4.87,4.75-8.98,10.27-12.14,16.47l-14.03-1.59l-5.97,22.16l13.4,4c-0.33,6.74,0.53,13.32,2.47,19.45
					l-11.75,8.92l11.16,18.8l12.95-6.87c4.41,4.55,9.67,8.31,15.61,11.03l-2.57,14.22l21.74,4.43l4.95-13.73
					c6.74-0.14,13.34-1.48,19.61-3.86l8.11,11.19l19.56-12.53l-5.97-12.53c4.87-4.75,9-10.3,12.14-16.46l14.03,1.58l5.95-22.16
					L1235.43,547z M1210.09,554.8c-4.84,18-23.08,29.66-40.75,26.06c-17.66-3.59-28.05-21.12-23.21-39.11
					c4.84-18.01,23.08-29.68,40.74-26.07C1204.54,519.28,1214.94,536.8,1210.09,554.8z"/>
			</g>
		</g>
		<g>
			<g>
				<path class="st5" d="M1170.97,620.49l-23.27-4.74l2.6-14.39c-5.54-2.62-10.52-6.14-14.83-10.48l-13.11,6.96l-11.96-20.14
					l11.88-9.02c-1.81-5.94-2.61-12.16-2.36-18.52l-13.55-4.04l6.37-23.66l14.17,1.6c3.02-5.8,6.92-11.09,11.6-15.74l-6.05-12.68
					l20.88-13.34l8.19,11.3c6.13-2.24,12.42-3.47,18.72-3.66l5-13.87l23.27,4.74l-2.6,14.39c5.53,2.61,10.51,6.14,14.83,10.49
					l13.11-6.96l11.94,20.14l-11.87,9.02c1.81,5.98,2.6,12.19,2.36,18.5l13.54,4.06l-6.36,23.65l-14.17-1.6
					c-3.02,5.8-6.93,11.09-11.61,15.74l6.03,12.66l-20.86,13.36l-8.2-11.31c-6.09,2.25-12.38,3.48-18.7,3.67L1170.97,620.49z
					 M1149.66,614.42l20.22,4.12l4.9-13.59l0.58-0.01c6.54-0.13,13.04-1.41,19.33-3.81l0.6-0.23l8.03,11.07l18.26-11.7l-5.91-12.41
					l0.43-0.42c4.88-4.76,8.91-10.22,11.98-16.24l0.27-0.52l13.89,1.57l5.55-20.66l-13.23-3.97l0.03-0.66
					c0.32-6.54-0.5-12.98-2.43-19.14l-0.18-0.57l11.61-8.82l-10.35-17.46l-12.8,6.8l-0.44-0.46c-4.42-4.56-9.59-8.22-15.36-10.86
					l-0.6-0.27l2.53-14.05l-20.22-4.12l-4.9,13.59l-0.58,0.01c-6.5,0.13-13.01,1.4-19.35,3.79l-0.6,0.23l-8.01-11.05l-18.28,11.68
					l5.92,12.42l-0.43,0.42c-4.88,4.76-8.91,10.23-11.98,16.24l-0.27,0.52l-13.89-1.57l-5.57,20.66l13.24,3.95l-0.03,0.66
					c-0.33,6.59,0.49,13.03,2.44,19.15l0.18,0.57l-11.63,8.82l10.36,17.46l12.8-6.79l0.44,0.46c4.41,4.55,9.58,8.21,15.36,10.85
					l0.6,0.27L1149.66,614.42z M1175.8,582.35c-2.2,0-4.42-0.22-6.63-0.67c-8.56-1.74-15.78-6.74-20.31-14.07
					c-4.75-7.69-6.01-16.95-3.55-26.09c4.94-18.4,23.67-30.36,41.72-26.68c8.57,1.75,15.79,6.75,20.32,14.09
					c4.75,7.68,6.01,16.95,3.55,26.09l0,0C1206.57,571.16,1191.61,582.35,1175.8,582.35z M1180.4,515.87
					c-15.06,0-29.31,10.68-33.45,26.09c-2.34,8.69-1.15,17.48,3.36,24.76c4.28,6.93,11.1,11.65,19.21,13.3
					c17.21,3.52,35.04-7.9,39.76-25.45l0,0c2.34-8.68,1.15-17.48-3.35-24.76c-4.28-6.93-11.11-11.66-19.22-13.32
					C1184.6,516.07,1182.5,515.87,1180.4,515.87z"/>
			</g>
		</g>
	</g>
</g>
</svg>
