<?xml version="1.0" encoding="utf-8"?>
<!-- Generator: Adobe Illustrator 24.1.2, SVG Export Plug-In . SVG Version: 6.00 Build 0)  -->
<svg version="1.1" id="Layer_1" xmlns="http://www.w3.org/2000/svg" xmlns:xlink="http://www.w3.org/1999/xlink" x="0px" y="0px"
	 viewBox="0 0 1920 1080" style="enable-background:new 0 0 1920 1080;" xml:space="preserve">
<style type="text/css">
	.st0{clip-path:url(#SVGID_2_);}
	.st1{fill:#D8E9F2;}
	.st2{fill:none;stroke:#70BAE0;stroke-width:14;stroke-miterlimit:10;}
	.st3{fill:#AAD5EB;}
	.st4{fill:#70BAE0;}
	.st5{fill:#EFF6FA;}
	.st6{fill:#A3D2EA;}
	.st7{fill:#FFFFFF;}
	.st8{clip-path:url(#SVGID_4_);fill:#D8E9F2;}
	.st9{clip-path:url(#SVGID_6_);}
	.st10{fill:#1D3599;}
	.st11{fill:#2647C8;}
	.st12{fill:#6F8FE4;}
	.st13{fill:#2A9BD4;}
	.st14{fill:#FBBCBE;}
	.st15{fill:#D3DDF8;}
	.st16{fill:#F5F8FF;}
	.st17{fill:#120D80;}
	.st18{fill:#193899;}
	.st19{fill:#172991;}
	.st20{fill:#DA91A7;}
	.st21{fill:#0C1540;}
	.st22{fill:none;stroke:#2647C8;stroke-width:10;stroke-miterlimit:10;}
	.st23{clip-path:url(#SVGID_8_);}
	.st24{fill:none;stroke:#83A5F2;stroke-width:6;stroke-miterlimit:10;}
	.st25{fill:none;stroke:#83A5F2;stroke-width:12;stroke-miterlimit:10;}
	.st26{clip-path:url(#SVGID_10_);fill:none;stroke:#83A5F2;stroke-width:4;stroke-miterlimit:10;}
	.st27{clip-path:url(#SVGID_12_);fill:none;stroke:#83A5F2;stroke-width:4;stroke-miterlimit:10;}
	.st28{clip-path:url(#SVGID_14_);fill:none;stroke:#83A5F2;stroke-width:4;stroke-miterlimit:10;}
	.st29{clip-path:url(#SVGID_16_);fill:none;stroke:#83A5F2;stroke-width:4;stroke-miterlimit:10;}
	.st30{opacity:0.19;clip-path:url(#SVGID_18_);}
	.st31{fill:none;stroke:#83A5F2;stroke-width:3;stroke-miterlimit:10;}
	.st32{clip-path:url(#SVGID_20_);}
	.st33{clip-path:url(#SVGID_22_);fill:none;stroke:#0C75AE;stroke-width:9.2045;stroke-miterlimit:10;}
	.st34{clip-path:url(#SVGID_24_);fill:none;stroke:#0C75AE;stroke-width:9.2045;stroke-miterlimit:10;}
	.st35{clip-path:url(#SVGID_26_);fill:none;stroke:#0C75AE;stroke-width:9.2045;stroke-miterlimit:10;}
	.st36{clip-path:url(#SVGID_28_);fill:none;stroke:#0C75AE;stroke-width:9.2045;stroke-miterlimit:10;}
	.st37{clip-path:url(#SVGID_30_);}
	.st38{clip-path:url(#SVGID_32_);fill:#0074A8;}
	.st39{clip-path:url(#SVGID_34_);fill:#FFFFFF;}
	.st40{clip-path:url(#SVGID_36_);}
	.st41{clip-path:url(#SVGID_38_);fill:#322D43;}
	.st42{clip-path:url(#SVGID_40_);}
	.st43{clip-path:url(#SVGID_42_);fill:#0074A8;}
	.st44{clip-path:url(#SVGID_44_);fill:#FFFFFF;}
	.st45{clip-path:url(#SVGID_46_);}
	.st46{clip-path:url(#SVGID_48_);fill:#322D43;}
	.st47{clip-path:url(#SVGID_50_);}
	.st48{clip-path:url(#SVGID_52_);fill:#0074A8;}
	.st49{clip-path:url(#SVGID_54_);fill:#FFFFFF;}
	.st50{clip-path:url(#SVGID_56_);}
	.st51{clip-path:url(#SVGID_58_);fill:#322D43;}
	.st52{clip-path:url(#SVGID_60_);}
	.st53{clip-path:url(#SVGID_62_);fill:#0074A8;}
	.st54{clip-path:url(#SVGID_64_);fill:#FFFFFF;}
	.st55{clip-path:url(#SVGID_66_);}
	.st56{clip-path:url(#SVGID_68_);fill:#322D43;}
	.st57{clip-path:url(#SVGID_70_);}
	.st58{clip-path:url(#SVGID_72_);fill:#0074A8;}
	.st59{clip-path:url(#SVGID_74_);fill:#FFFFFF;}
	.st60{clip-path:url(#SVGID_76_);}
	.st61{clip-path:url(#SVGID_78_);fill:#322D43;}
	.st62{font-family:'Swiss721BT-Black';}
	.st63{font-size:19.0283px;}
	.st64{clip-path:url(#SVGID_80_);}
	.st65{fill:#0045CC;}
	.st66{fill:#FFAE00;}
	.st67{fill:#FF9F00;}
</style>
<g id="Layer_2_1_">
</g>
<g id="Layer_3">
</g>
<g id="Layer_5">
</g>
<g id="Layer_4">
</g>
<g id="Layer_7">
	<g>
		<g>
			<defs>
				<path id="SVGID_1_" d="M2047.9,1481.7H-173c-6.6,0-12-5.4-12-12V-176.4c0-6.6,5.4-12,12-12h2220.9c6.6,0,12,5.4,12,12v1646.1
					C2059.9,1476.3,2054.5,1481.7,2047.9,1481.7z"/>
			</defs>
			<clipPath id="SVGID_2_">
				<use xlink:href="#SVGID_1_"  style="display:none;overflow:visible;"/>
			</clipPath>
			<g class="st0">
				<path class="st1" d="M91.4,1047.1H1822c18.1-26.9,98-120.9-1.3-255.9c-88.7-100.1-101.4-188.5-98.4-300.9
					c1.6-57.8-25-121.7-70.9-171c-61.4-65.9-149-93.4-220.4-115.8c-34.9-11-67.2-18.2-95.4-23.2c-36.7-6.4-71-22.4-99.7-46.1
					C1111.3,31,1011.9,11.9,940.6,16.7c-161.2,10.8-244.3,151.1-458,184.7c-71.6,16.5-121.1,16.3-159.5,11.4
					c-45.3-16.7-82.5-17.8-121.7,2.4c-41.1,21.1-69.4,60.5-77.8,105.9c-10.8,58.2,1,120,11.6,159.8c15.3,57.6,11.9,130.3-15.4,183.2
					c-41.7,80.7-71,174.6-69.6,234.2C51.6,962.2,73.5,1013.8,91.4,1047.1z"/>
				<g>
					<rect x="1215.8" y="414.6" class="st2" width="113.1" height="113.1"/>
					<rect x="1376.5" y="414.6" class="st2" width="113.1" height="113.1"/>
					<rect x="1215.8" y="581.7" class="st2" width="113.1" height="113.1"/>
					<rect x="1376.5" y="581.7" class="st2" width="113.1" height="113.1"/>
					<path class="st3" d="M754.2,85.2l12.6-7.4l-0.3,42.9l89.7,83.9l-72.6,1.9c-6.4,32.5-36,32.8-48.2,0h-69.8l89-85.5L754.2,85.2z"
						/>
					<path class="st3" d="M1349.8,183.1l11.6,2.4l1.9,42.8l89.7,71l-72.6,1.6c-6.4,27.5-36,27.8-48.2,0h-69.8l89-72.4L1349.8,183.1z
						"/>
					<path class="st3" d="M1529.8,238.5c17.9,7.4,36.3,16.9,55.2,27.9V522h137c0,20.8,0.5,40.3,3,59.8h-195.2V238.5z"/>
					<g>
						
							<ellipse transform="matrix(0.7071 -0.7071 0.7071 0.7071 103.648 788.2285)" class="st4" cx="1003.3" cy="269" rx="113.5" ry="113.5"/>
						
							<ellipse transform="matrix(0.7071 -0.7071 0.7071 0.7071 103.648 788.2285)" class="st5" cx="1003.3" cy="269" rx="91.6" ry="91.6"/>
						<circle class="st4" cx="1003.3" cy="269" r="67.8"/>
						<circle class="st5" cx="1003.3" cy="269" r="47.3"/>
						<circle class="st6" cx="1003.3" cy="269" r="28.3"/>
						<circle class="st4" cx="1003.3" cy="269" r="12.5"/>
					</g>
					<path class="st7" d="M89,757.6l696.1-1V880H51c1.1-7.9,2.3-16,3.8-20.6l695.6,0.3v-84.9l-668.9,0.9L89,757.6z"/>
					<path class="st7" d="M82.3,1029.1h702.8V905.7H50.3c0.5,8.3,1.1,16,1.8,21.2l698.2-1v84.9l-676.1,0.1
						C76.5,1016.6,79.3,1022.7,82.3,1029.1z"/>
					<polygon class="st7" points="220,826.6 63,827.7 67.2,814.7 220,814.7 					"/>
					<polygon class="st7" points="217.4,976.6 62.4,977 59.5,966.4 217.4,964.7 					"/>
					<rect x="290.9" y="812.3" class="st7" width="166.3" height="11.9"/>
					<rect x="288.3" y="964.7" class="st7" width="166.3" height="11.9"/>
					<rect x="527.4" y="812.3" class="st7" width="173.8" height="11.9"/>
					<rect x="527.4" y="964.7" class="st7" width="173.8" height="11.9"/>
				</g>
			</g>
		</g>
		<g>
			<defs>
				<path id="SVGID_3_" d="M2047.9,1481.7H-173c-6.6,0-12-5.4-12-12V-176.4c0-6.6,5.4-12,12-12h2220.9c6.6,0,12,5.4,12,12v1646.1
					C2059.9,1476.3,2054.5,1481.7,2047.9,1481.7z"/>
			</defs>
			<clipPath id="SVGID_4_">
				<use xlink:href="#SVGID_3_"  style="overflow:visible;"/>
			</clipPath>
			<path class="st8" d="M885.8,968.5c0,0-0.4,7.2,6.6,8c7.1,0.9,37.8-1.2,52.9-12.5l-21.4-15.6L885.8,968.5z"/>
		</g>
		<g>
			<defs>
				<path id="SVGID_5_" d="M2047.9,1481.7H-173c-6.6,0-12-5.4-12-12V-176.4c0-6.6,5.4-12,12-12h2220.9c6.6,0,12,5.4,12,12v1646.1
					C2059.9,1476.3,2054.5,1481.7,2047.9,1481.7z"/>
			</defs>
			<clipPath id="SVGID_6_">
				<use xlink:href="#SVGID_5_"  style="overflow:visible;"/>
			</clipPath>
			<g class="st9">
				<g>
					<g>
						<path class="st10" d="M1337.9,862.6h17l5.6,183.9c0,0.7-5.4,1-5.5,0.3L1337.9,862.6z"/>
						<path class="st11" d="M1281.9,1046.2l-5.7-188.7h-18.6l19.4,188.9C1277.2,1047.7,1281.9,1047.5,1281.9,1046.2z"/>
						<path class="st10" d="M1138.6,857.5h19.3l-23.5,187.6c-0.1,1.2-1.1,2.1-2.3,2.1l0,0c-1.3,0-2.4-1.1-2.3-2.4L1138.6,857.5z"/>
						<path class="st11" d="M1058,857.5h17.4L1058,1044c-0.2,2.1-2,3.7-4.1,3.8l0,0c-2,0-3.7-1.7-3.6-3.7L1058,857.5z"/>
					</g>
					<g>
						<g>
							<path class="st12" d="M1355,862.6h-317.3c0,0-7.7-55.9,6.8-58.8c0,0,88.7,16.4,108,15.4c0,0-3.8-20.3,40.5-19.3l67.2-183.5
								c0,0,63.8-7.5,99.6,3.1c12.4,3.7,21.5,9.6,23.4,18.8c0,0,0.1,0.4,0.2,1.2C1384.9,651.6,1396.7,755.7,1355,862.6z"/>
							<path class="st11" d="M1355,862.6h-202.4c0-0.2-0.1-0.4-0.1-0.6c-1.3-12.7-0.9-27.4,0-42.8c-0.7-27,74.7-21.5,168.5-8.3
								c3-120.5,23.5-170.7,38.8-191.5c12.4,3.7,21.5,9.6,23.4,18.8c0,0,0.1,0.4,0.2,1.2C1384.9,651.6,1396.7,755.7,1355,862.6z"/>
							<path class="st10" d="M1355,862.6h-202.4c0,0.2,0,0.3,0.1,0.5l-8.8-0.5l8.7-0.6l188-13.8c16.6-116.6,34.7-182.7,42.8-208.7
								C1384.9,651.6,1396.7,755.7,1355,862.6z"/>
						</g>
					</g>
					<path class="st11" d="M1310.6,899.3"/>
				</g>
				<path class="st13" d="M943.6,964.6c0,0-0.1,0.3-0.3,0.9c-2,5.5-13.7,35.7-28.4,46.6c-2,1.5-4.7-0.4-4.1-2.7l5.3-17.3
					c0.5-1.5-1.2-2.6-2.4-1.7c-5.5,4.2-14.6,9.6-23.9,8.7c-10.6-1-29.8-15-37.5-20.9c-1.2-0.9-0.7-2.9,0.9-3l27.2-3.3
					c1-0.2,2.1-0.2,3.1-0.4c5.1-1.1,10-2.3,14.7-4.6c7.5-3.5,17.7-8.7,22.6-12.7c1.3-1,3.1-1.2,4.6-0.4L943.6,964.6z"/>
				<path class="st14" d="M943.6,964.6c0,0-0.1,0.3-0.3,0.9c-19.7,10.2-40.2,13.9-60.6,6.1c5.1-1.1,10.7-2.5,15.4-4.7
					c8.7-4.1,21.1-10.5,24.7-14.5L943.6,964.6z"/>
				<path class="st13" d="M1165.5,1021.2c-0.2,1.1-1.7,1.5-2.3,0.5l-11.1-17.9c-0.6-1-2.1-0.8-2.4,0.3l-6.2,21.3
					c-1.3,4.4-4.5,7.8-8.8,9.4l-29.6,10.6c-1.6,0.6-3-1.1-2.1-2.6c5.3-8.8,9.8-17.7,13.3-26.7c5.2-13.8,7.9-28,7.5-42.6
					c1,0.3,23.1-9,23.1-9s0.4,0.6,1.1,1.6l0,0C1152.6,972.8,1168.9,998.9,1165.5,1021.2z"/>
				<path class="st14" d="M1148.1,966.1L1148.1,966.1c-7.6,24.6-16.9,44.5-31.8,50c5.2-13.8,7.9-28,7.5-42.6c1,0.3,23.1-9,23.1-9
					S1147.4,965.1,1148.1,966.1z"/>
				<path class="st15" d="M1097.3,753.6l-44.2,53.1h-17.3l-65.5,130l-16.9,31l-37.1-20.1c27.8-82.7,47.1-149.6,88.9-194H1097.3z"/>
				<path class="st16" d="M1079.8,753.6c-36.3,16.7-90.6,61.8-109.5,183.1l-16.9,31l-37.1-20.1c27.8-82.7,47.1-149.6,88.9-194
					H1079.8z"/>
				<path class="st16" d="M1227.4,804.1c-73.8-9.3-75.9,12.9-75.9,12.9l-31.5,2.6c0,0,2.8,19.2,7.8,44.5
					c6.5,32.3,16.8,74.5,29.9,98.5l-41.4,14.2c0,0-63.2-141.1-63.2-170l49.7-60.8l140.6-17.8l19-2.4
					C1262.4,725.7,1272.4,802.9,1227.4,804.1z"/>
				<path class="st15" d="M1227.4,804.1c-73.8-9.3-75.9,12.9-75.9,12.9l-31.5,2.6c0,0,2.8,19.2,7.8,44.5l-30.5-71.5
					c170.8,17.4,146.1-64.5,146.1-64.5l19-2.4C1262.4,725.7,1272.4,802.9,1227.4,804.1z"/>
				<path class="st13" d="M1120.6,630.3l-9.6-6.1c0,0,7.7-68.6,32.1-84.1c0,0,18.6,28.2,42.4,10.2l75.2-5.1c0,0,33.4,27.7,40.5,36.7
					s-41.8,39.8-41.8,39.8l10.3,98.4c0,0-46.9,28.9-103.5,18l-1.9,6.1H1111L1120.6,630.3z"/>
				<g>
					<path class="st17" d="M969,630.3h166c2.9,0,5.3,2.1,5.8,4.9l19.1,108.9H987.6l-25.5-105C961,634.5,964.4,630.3,969,630.3z"/>
					<polygon class="st18" points="1092.7,630.3 1104.9,630.3 1053.8,744 1038.4,744 					"/>
					<polygon class="st19" points="1055.7,630.3 1079.8,631.5 1030,744 1004.6,744 					"/>
					<polygon class="st10" points="986.9,753.6 987.6,744 1159.9,744 1159.9,753.6 					"/>
					<rect x="1159.9" y="744" class="st13" width="79.7" height="9.5"/>
				</g>
				<path class="st14" d="M1260.1,620.3c0,0,7.1-0.6,36-28.3l46.9,63c8.1,18.3,1.5,32-24.4,39.9c-21.7,11.2-56.9,31.5-85.1,32.4
					c-2.5,0.3-4.8,1.3-6.8,2.9c-4.1,3.4-7.1,7.8-8.6,10.5l0,0c-0.8,1.1-2.4,0.5-2.4-0.8v-5.1c0-1.1-1.3-1.7-2.1-1.1l-10,7.4
					c-1.1,0.8-2.6-0.3-2-1.6l3.1-7.4c0.5-1.2-0.9-2.4-2-1.6l-5.9,4c-1.2,0.8-2.7-0.7-1.8-1.9l5.4-7.5c0.7-1-0.1-2.3-1.3-2.1
					l-4.7,0.8c-3,0.5-4.9-3.3-2.5-5.3l14.1-12.4c2.8-2.5,6.5-3.7,10.2-3.5l14.5,1c5.8,0.4,11.5-1.1,16.4-4.3l44.6-28.9
					c9.1-3.2,11.7-8.9,5.1-13.3L1260.1,620.3z"/>
				<g>
					<path class="st14" d="M1165.4,556c0,0-2.4-0.9-5.6-2.4c-5.9-2.7-14.4-7.3-15.8-11.7l13.7-4.7v-12.4
						c-13.3,5.4-24.6-9.4-31.7-53.6c11.6-1.5,23.6-6.3,35.9-13.6c3.2-1.9,6.3-3.9,9.5-6.1c-2.3,4.5-3.7,9-4.4,13.4
						c-2.4,14.6,2.8,28.6,9.8,42c3.7,7.1,7.9,14.1,11.8,20.9C1188.6,527.7,1196.3,564.1,1165.4,556z"/>
					<path class="st20" d="M1167,464.8l-5.1-7.3c3.2-1.9,6.3-3.9,9.5-6.1C1169.2,456,1167.8,460.4,1167,464.8z"/>
					<path class="st20" d="M1165.4,556c0,0-2.4-0.9-5.6-2.4c35-6,18.5-31.9,18.5-31.9l-15.4,3.4c6.6-1.5,11.6-12.2,13.9-18.3
						c3.7,7.1,7.9,14.1,11.8,20.9C1188.6,527.7,1196.3,564.1,1165.4,556z"/>
				</g>
				<path class="st21" d="M1120,581.7c0,0,3.4-37.7,37.7-44.6v-12.4c-16.6,5.4-25.6-17.9-31.7-53.6c0,0,28.5-5.6,45.4-19.7
					c-13.7,21.4,3.2,57,17.1,76.3c0,0,3.4,14.2-3,26.8c-3.7,7.3-5.8,15.3-5.6,23.5c0.6,20.8,14.8,26.5,45.3,14
					c37.7-18.7,39.8-41.5,17.7-69.6c-12.9-16.3-21.6-35.5-26.2-55.8c-5.8-25.4-16.3-44.3-39.6-50.7c-8.8-2.4-18.2-1.7-26.5,2
					c-9,4-17.6,7.1-25.8,9.1c-7.5,1.9-14.1,6.6-18.4,13c-10.7,15.9-6.9,24.8,3.7,29.3c3,1.3,4.2,4.9,2.6,7.7
					c-7.1,12.2-5.5,23.7,1.6,36.7c5.2,9.6,6.6,20.9,4.2,31.5C1114.5,563,1114,576.1,1120,581.7z"/>
				<path class="st22" d="M1197.1,806.7c0,0,53.4-111.8,131.8-8.4"/>
			</g>
		</g>
		<g>
			<defs>
				<path id="SVGID_7_" d="M2047.9,1481.7H-173c-6.6,0-12-5.4-12-12V-176.4c0-6.6,5.4-12,12-12h2220.9c6.6,0,12,5.4,12,12v1646.1
					C2059.9,1476.3,2054.5,1481.7,2047.9,1481.7z"/>
			</defs>
			<clipPath id="SVGID_8_">
				<use xlink:href="#SVGID_7_"  style="overflow:visible;"/>
			</clipPath>
			<g class="st23">
				<line class="st24" x1="185" y1="702.6" x2="141" y2="1045"/>
				<line class="st24" x1="264" y1="1045" x2="220" y2="702.6"/>
				<line class="st24" x1="818" y1="1045" x2="774" y2="702.6"/>
				<line class="st24" x1="740.5" y1="702.6" x2="696.5" y2="1045"/>
				<rect x="154.4" y="273.1" class="st25" width="641.6" height="429.4"/>
			</g>
		</g>
		<g>
			<defs>
				<path id="SVGID_9_" d="M2047.9,1481.7H-173c-6.6,0-12-5.4-12-12V-176.4c0-6.6,5.4-12,12-12h2220.9c6.6,0,12,5.4,12,12v1646.1
					C2059.9,1476.3,2054.5,1481.7,2047.9,1481.7z"/>
			</defs>
			<clipPath id="SVGID_10_">
				<use xlink:href="#SVGID_9_"  style="overflow:visible;"/>
			</clipPath>
			<line class="st26" x1="204.6" y1="633.9" x2="454" y2="633.9"/>
		</g>
		<g>
			<defs>
				<path id="SVGID_11_" d="M2047.9,1481.7H-173c-6.6,0-12-5.4-12-12V-176.4c0-6.6,5.4-12,12-12h2220.9c6.6,0,12,5.4,12,12v1646.1
					C2059.9,1476.3,2054.5,1481.7,2047.9,1481.7z"/>
			</defs>
			<clipPath id="SVGID_12_">
				<use xlink:href="#SVGID_11_"  style="overflow:visible;"/>
			</clipPath>
			<line class="st27" x1="204.6" y1="657.3" x2="454" y2="657.3"/>
		</g>
		<g>
			<defs>
				<path id="SVGID_13_" d="M2047.9,1481.7H-173c-6.6,0-12-5.4-12-12V-176.4c0-6.6,5.4-12,12-12h2220.9c6.6,0,12,5.4,12,12v1646.1
					C2059.9,1476.3,2054.5,1481.7,2047.9,1481.7z"/>
			</defs>
			<clipPath id="SVGID_14_">
				<use xlink:href="#SVGID_13_"  style="overflow:visible;"/>
			</clipPath>
			<line class="st28" x1="514.1" y1="633.9" x2="763.5" y2="633.9"/>
		</g>
		<g>
			<defs>
				<path id="SVGID_15_" d="M2047.9,1481.7H-173c-6.6,0-12-5.4-12-12V-176.4c0-6.6,5.4-12,12-12h2220.9c6.6,0,12,5.4,12,12v1646.1
					C2059.9,1476.3,2054.5,1481.7,2047.9,1481.7z"/>
			</defs>
			<clipPath id="SVGID_16_">
				<use xlink:href="#SVGID_15_"  style="overflow:visible;"/>
			</clipPath>
			<line class="st29" x1="514.1" y1="657.3" x2="763.5" y2="657.3"/>
		</g>
		<g>
			<defs>
				<path id="SVGID_17_" d="M2047.9,1481.7H-173c-6.6,0-12-5.4-12-12V-176.4c0-6.6,5.4-12,12-12h2220.9c6.6,0,12,5.4,12,12v1646.1
					C2059.9,1476.3,2054.5,1481.7,2047.9,1481.7z"/>
			</defs>
			<clipPath id="SVGID_18_">
				<use xlink:href="#SVGID_17_"  style="overflow:visible;"/>
			</clipPath>
			<g class="st30">
				<line class="st31" x1="216.1" y1="316.9" x2="216.1" y2="595.5"/>
				<line class="st31" x1="268.2" y1="316.9" x2="268.2" y2="595.5"/>
				<line class="st31" x1="320.3" y1="316.9" x2="320.3" y2="595.5"/>
				<line class="st31" x1="372.4" y1="316.9" x2="372.4" y2="595.5"/>
				<line class="st31" x1="424.4" y1="316.9" x2="424.4" y2="595.5"/>
				<line class="st31" x1="476.5" y1="316.9" x2="476.5" y2="595.5"/>
				<line class="st31" x1="528.6" y1="316.9" x2="528.6" y2="595.5"/>
				<line class="st31" x1="580.6" y1="316.9" x2="580.6" y2="595.5"/>
				<line class="st31" x1="632.7" y1="316.9" x2="632.7" y2="595.5"/>
				<line class="st31" x1="684.8" y1="316.9" x2="684.8" y2="595.5"/>
				<line class="st31" x1="736.9" y1="316.9" x2="736.9" y2="595.5"/>
				<line class="st31" x1="755.5" y1="371.4" x2="198.1" y2="371.6"/>
				<line class="st31" x1="755.5" y1="431.8" x2="198.1" y2="432"/>
				<line class="st31" x1="755.5" y1="492.2" x2="198.1" y2="492.4"/>
				<line class="st31" x1="755.5" y1="552.6" x2="198.1" y2="552.8"/>
			</g>
		</g>
		<g>
			<defs>
				<path id="SVGID_19_" d="M2047.9,1481.7H-173c-6.6,0-12-5.4-12-12V-176.4c0-6.6,5.4-12,12-12h2220.9c6.6,0,12,5.4,12,12v1646.1
					C2059.9,1476.3,2054.5,1481.7,2047.9,1481.7z"/>
			</defs>
			<clipPath id="SVGID_20_">
				<use xlink:href="#SVGID_19_"  style="overflow:visible;"/>
			</clipPath>
			<g class="st32">
				<g>
					<g>
						<g>
							<g>
								<g>
									<g>
										<g>
											<defs>
												<rect id="SVGID_21_" x="98.6" y="86.4" width="785.2" height="770.6"/>
											</defs>
											<clipPath id="SVGID_22_">
												<use xlink:href="#SVGID_21_"  style="overflow:visible;"/>
											</clipPath>
											<line class="st33" x1="229.1" y1="495.6" x2="341.4" y2="495.6"/>
										</g>
									</g>
								</g>
							</g>
						</g>
						<g>
							<g>
								<g>
									<g>
										<g>
											<defs>
												<rect id="SVGID_23_" x="98.6" y="86.4" width="785.2" height="770.6"/>
											</defs>
											<clipPath id="SVGID_24_">
												<use xlink:href="#SVGID_23_"  style="overflow:visible;"/>
											</clipPath>
											<line class="st34" x1="340" y1="495.6" x2="452.4" y2="495.6"/>
										</g>
									</g>
								</g>
							</g>
						</g>
						<g>
							<g>
								<g>
									<g>
										<g>
											<defs>
												<rect id="SVGID_25_" x="98.6" y="86.4" width="785.2" height="770.6"/>
											</defs>
											<clipPath id="SVGID_26_">
												<use xlink:href="#SVGID_25_"  style="overflow:visible;"/>
											</clipPath>
											<line class="st35" x1="451" y1="495.6" x2="563.3" y2="495.6"/>
										</g>
									</g>
								</g>
							</g>
						</g>
						<g>
							<g>
								<g>
									<g>
										<g>
											<defs>
												<rect id="SVGID_27_" x="98.6" y="86.4" width="785.2" height="770.6"/>
											</defs>
											<clipPath id="SVGID_28_">
												<use xlink:href="#SVGID_27_"  style="overflow:visible;"/>
											</clipPath>
											<line class="st36" x1="563.3" y1="495.6" x2="720.9" y2="495.6"/>
										</g>
									</g>
								</g>
							</g>
						</g>
						<g>
							<g>
								<g>
									<g>
										<g>
											<defs>
												<rect id="SVGID_29_" x="98.6" y="86.4" width="785.2" height="770.6"/>
											</defs>
											<clipPath id="SVGID_30_">
												<use xlink:href="#SVGID_29_"  style="overflow:visible;"/>
											</clipPath>
											<g class="st37">
												<g>
													<g>
														<g>
															<g>
																<g>
																	<defs>
																		<rect id="SVGID_31_" x="98.6" y="86.4" width="785.2" height="770.6"/>
																	</defs>
																	<clipPath id="SVGID_32_">
																		<use xlink:href="#SVGID_31_"  style="overflow:visible;"/>
																	</clipPath>
																	<path class="st38" d="M257,494.2c0,15.8-12.8,28.6-28.6,28.6s-28.6-12.8-28.6-28.6s12.8-28.6,28.6-28.6
																		C244.2,465.6,257,478.4,257,494.2"/>
																</g>
															</g>
														</g>
													</g>
												</g>
												<g>
													<g>
														<g>
															<g>
																<g>
																	<defs>
																		<rect id="SVGID_33_" x="98.6" y="86.4" width="785.2" height="770.6"/>
																	</defs>
																	<clipPath id="SVGID_34_">
																		<use xlink:href="#SVGID_33_"  style="overflow:visible;"/>
																	</clipPath>
																	<path class="st39" d="M247.3,494.2c0,10.5-8.5,18.9-18.9,18.9c-10.5,0-18.9-8.5-18.9-18.9s8.5-18.9,18.9-18.9
																		C238.8,475.3,247.3,483.7,247.3,494.2"/>
																</g>
															</g>
														</g>
													</g>
												</g>
											</g>
										</g>
									</g>
								</g>
							</g>
						</g>
						<g>
							<g>
								<g>
									<g>
										<g>
											<defs>
												<rect id="SVGID_35_" x="98.6" y="86.4" width="785.2" height="770.6"/>
											</defs>
											<clipPath id="SVGID_36_">
												<use xlink:href="#SVGID_35_"  style="overflow:visible;"/>
											</clipPath>
											<g class="st40">
												<g>
													<g>
														<g>
															<g>
																<g>
																	<defs>
																		<rect id="SVGID_37_" x="98.6" y="86.4" width="785.2" height="770.6"/>
																	</defs>
																	<clipPath id="SVGID_38_">
																		<use xlink:href="#SVGID_37_"  style="overflow:visible;"/>
																	</clipPath>
																	<path class="st41" d="M224.5,489.1l4.7,5c1.1,1.2,3.1,1.2,4.3,0l27.3-29.4c3-3.3,7.8-4.7,12.1-3.4
																		c0.3,0.1,0.6,0.2,0.9,0.3c0.8,0.2,0.9,1.1,0.3,1.6c-18.6,13.9-22.6,16.7-41.7,40.4c-0.8,1-2.3,1-2.9,1
																		c-4.9-0.8-6-7.6-6.1-14.9C223.4,489.1,224,488.8,224.5,489.1"/>
																</g>
															</g>
														</g>
													</g>
												</g>
											</g>
										</g>
									</g>
								</g>
							</g>
						</g>
						<g>
							<g>
								<g>
									<g>
										<g>
											<defs>
												<rect id="SVGID_39_" x="98.6" y="86.4" width="785.2" height="770.6"/>
											</defs>
											<clipPath id="SVGID_40_">
												<use xlink:href="#SVGID_39_"  style="overflow:visible;"/>
											</clipPath>
											<g class="st42">
												<g>
													<g>
														<g>
															<g>
																<g>
																	<defs>
																		<rect id="SVGID_41_" x="98.6" y="86.4" width="785.2" height="770.6"/>
																	</defs>
																	<clipPath id="SVGID_42_">
																		<use xlink:href="#SVGID_41_"  style="overflow:visible;"/>
																	</clipPath>
																	<path class="st43" d="M367.9,494.2c0,15.8-12.8,28.6-28.6,28.6s-28.6-12.8-28.6-28.6s12.8-28.6,28.6-28.6
																		S367.9,478.4,367.9,494.2"/>
																</g>
															</g>
														</g>
													</g>
												</g>
												<g>
													<g>
														<g>
															<g>
																<g>
																	<defs>
																		<rect id="SVGID_43_" x="98.6" y="86.4" width="785.2" height="770.6"/>
																	</defs>
																	<clipPath id="SVGID_44_">
																		<use xlink:href="#SVGID_43_"  style="overflow:visible;"/>
																	</clipPath>
																	<path class="st44" d="M358.2,494.2c0,10.5-8.5,18.9-18.9,18.9c-10.5,0-18.9-8.5-18.9-18.9s8.5-18.9,18.9-18.9
																		C349.7,475.3,358.2,483.7,358.2,494.2"/>
																</g>
															</g>
														</g>
													</g>
												</g>
											</g>
										</g>
									</g>
								</g>
							</g>
						</g>
						<g>
							<g>
								<g>
									<g>
										<g>
											<defs>
												<rect id="SVGID_45_" x="98.6" y="86.4" width="785.2" height="770.6"/>
											</defs>
											<clipPath id="SVGID_46_">
												<use xlink:href="#SVGID_45_"  style="overflow:visible;"/>
											</clipPath>
											<g class="st45">
												<g>
													<g>
														<g>
															<g>
																<g>
																	<defs>
																		<rect id="SVGID_47_" x="98.6" y="86.4" width="785.2" height="770.6"/>
																	</defs>
																	<clipPath id="SVGID_48_">
																		<use xlink:href="#SVGID_47_"  style="overflow:visible;"/>
																	</clipPath>
																	<path class="st46" d="M335.4,489.1l4.7,5c1.1,1.2,3.1,1.2,4.3,0l27.3-29.4c3-3.3,7.8-4.7,12.1-3.4
																		c0.3,0.1,0.6,0.2,1,0.3c0.8,0.2,0.9,1.1,0.3,1.6c-18.6,13.9-22.6,16.7-41.7,40.4c-0.8,1-2.3,1-2.9,1
																		c-4.9-0.8-6-7.6-6.1-14.9C334.3,489.1,335,488.8,335.4,489.1"/>
																</g>
															</g>
														</g>
													</g>
												</g>
											</g>
										</g>
									</g>
								</g>
							</g>
						</g>
						<g>
							<g>
								<g>
									<g>
										<g>
											<defs>
												<rect id="SVGID_49_" x="98.6" y="86.4" width="785.2" height="770.6"/>
											</defs>
											<clipPath id="SVGID_50_">
												<use xlink:href="#SVGID_49_"  style="overflow:visible;"/>
											</clipPath>
											<g class="st47">
												<g>
													<g>
														<g>
															<g>
																<g>
																	<defs>
																		<rect id="SVGID_51_" x="98.6" y="86.4" width="785.2" height="770.6"/>
																	</defs>
																	<clipPath id="SVGID_52_">
																		<use xlink:href="#SVGID_51_"  style="overflow:visible;"/>
																	</clipPath>
																	<path class="st48" d="M484.6,494.2c0,15.8-12.8,28.6-28.6,28.6s-28.6-12.8-28.6-28.6s12.8-28.6,28.6-28.6
																		C471.9,465.6,484.6,478.4,484.6,494.2"/>
																</g>
															</g>
														</g>
													</g>
												</g>
												<g>
													<g>
														<g>
															<g>
																<g>
																	<defs>
																		<rect id="SVGID_53_" x="98.6" y="86.4" width="785.2" height="770.6"/>
																	</defs>
																	<clipPath id="SVGID_54_">
																		<use xlink:href="#SVGID_53_"  style="overflow:visible;"/>
																	</clipPath>
																	<path class="st49" d="M474.9,494.2c0,10.5-8.5,18.9-18.9,18.9c-10.5,0-18.9-8.5-18.9-18.9s8.5-18.9,18.9-18.9
																		C466.5,475.3,474.9,483.7,474.9,494.2"/>
																</g>
															</g>
														</g>
													</g>
												</g>
											</g>
										</g>
									</g>
								</g>
							</g>
						</g>
						<g>
							<g>
								<g>
									<g>
										<g>
											<defs>
												<rect id="SVGID_55_" x="98.6" y="86.4" width="785.2" height="770.6"/>
											</defs>
											<clipPath id="SVGID_56_">
												<use xlink:href="#SVGID_55_"  style="overflow:visible;"/>
											</clipPath>
											<g class="st50">
												<g>
													<g>
														<g>
															<g>
																<g>
																	<defs>
																		<rect id="SVGID_57_" x="98.6" y="86.4" width="785.2" height="770.6"/>
																	</defs>
																	<clipPath id="SVGID_58_">
																		<use xlink:href="#SVGID_57_"  style="overflow:visible;"/>
																	</clipPath>
																	<path class="st51" d="M452.2,489.1l4.7,5c1.1,1.2,3.1,1.2,4.3,0l27.3-29.4c3-3.3,7.8-4.7,12.1-3.4
																		c0.3,0.1,0.6,0.2,1,0.3c0.8,0.2,0.9,1.1,0.3,1.6c-18.6,13.9-22.6,16.7-41.7,40.4c-0.8,1-2.3,1-2.9,1
																		c-4.9-0.8-6-7.6-6.1-14.9C451.1,489.1,451.8,488.8,452.2,489.1"/>
																</g>
															</g>
														</g>
													</g>
												</g>
											</g>
										</g>
									</g>
								</g>
							</g>
						</g>
						<g>
							<g>
								<g>
									<g>
										<g>
											<defs>
												<rect id="SVGID_59_" x="98.6" y="86.4" width="785.2" height="770.6"/>
											</defs>
											<clipPath id="SVGID_60_">
												<use xlink:href="#SVGID_59_"  style="overflow:visible;"/>
											</clipPath>
											<g class="st52">
												<g>
													<g>
														<g>
															<g>
																<g>
																	<defs>
																		<rect id="SVGID_61_" x="98.6" y="86.4" width="785.2" height="770.6"/>
																	</defs>
																	<clipPath id="SVGID_62_">
																		<use xlink:href="#SVGID_61_"  style="overflow:visible;"/>
																	</clipPath>
																	<path class="st53" d="M592.7,494.2c0,15.8-12.8,28.6-28.6,28.6s-28.6-12.8-28.6-28.6s12.8-28.6,28.6-28.6
																		C579.9,465.6,592.7,478.4,592.7,494.2"/>
																</g>
															</g>
														</g>
													</g>
												</g>
												<g>
													<g>
														<g>
															<g>
																<g>
																	<defs>
																		<rect id="SVGID_63_" x="98.6" y="86.4" width="785.2" height="770.6"/>
																	</defs>
																	<clipPath id="SVGID_64_">
																		<use xlink:href="#SVGID_63_"  style="overflow:visible;"/>
																	</clipPath>
																	<path class="st54" d="M582.9,494.2c0,10.5-8.5,18.9-18.9,18.9c-10.5,0-18.9-8.5-18.9-18.9s8.5-18.9,18.9-18.9
																		C574.5,475.3,582.9,483.7,582.9,494.2"/>
																</g>
															</g>
														</g>
													</g>
												</g>
											</g>
										</g>
									</g>
								</g>
							</g>
						</g>
						<g>
							<g>
								<g>
									<g>
										<g>
											<defs>
												<rect id="SVGID_65_" x="98.6" y="86.4" width="785.2" height="770.6"/>
											</defs>
											<clipPath id="SVGID_66_">
												<use xlink:href="#SVGID_65_"  style="overflow:visible;"/>
											</clipPath>
											<g class="st55">
												<g>
													<g>
														<g>
															<g>
																<g>
																	<defs>
																		<rect id="SVGID_67_" x="98.6" y="86.4" width="785.2" height="770.6"/>
																	</defs>
																	<clipPath id="SVGID_68_">
																		<use xlink:href="#SVGID_67_"  style="overflow:visible;"/>
																	</clipPath>
																	<path class="st56" d="M560.2,489.1l4.7,5c1.1,1.2,3.1,1.2,4.3,0l27.3-29.4c3-3.3,7.8-4.7,12.1-3.4
																		c0.3,0.1,0.6,0.2,1,0.3c0.8,0.2,0.9,1.1,0.3,1.6c-18.6,13.9-22.6,16.7-41.7,40.4c-0.8,1-2.3,1-2.9,1
																		c-4.9-0.8-6-7.6-6.1-14.9C559.1,489.1,559.8,488.8,560.2,489.1"/>
																</g>
															</g>
														</g>
													</g>
												</g>
											</g>
										</g>
									</g>
								</g>
							</g>
						</g>
						<g>
							<g>
								<g>
									<g>
										<g>
											<defs>
												<rect id="SVGID_69_" x="98.6" y="86.4" width="785.2" height="770.6"/>
											</defs>
											<clipPath id="SVGID_70_">
												<use xlink:href="#SVGID_69_"  style="overflow:visible;"/>
											</clipPath>
											<g class="st57">
												<g>
													<g>
														<g>
															<g>
																<g>
																	<defs>
																		<rect id="SVGID_71_" x="98.6" y="86.4" width="785.2" height="770.6"/>
																	</defs>
																	<clipPath id="SVGID_72_">
																		<use xlink:href="#SVGID_71_"  style="overflow:visible;"/>
																	</clipPath>
																	<path class="st58" d="M747.4,494.2c0,15.8-12.8,28.6-28.6,28.6s-28.6-12.8-28.6-28.6s12.8-28.6,28.6-28.6
																		C734.6,465.6,747.4,478.4,747.4,494.2"/>
																</g>
															</g>
														</g>
													</g>
												</g>
												<g>
													<g>
														<g>
															<g>
																<g>
																	<defs>
																		<rect id="SVGID_73_" x="98.6" y="86.4" width="785.2" height="770.6"/>
																	</defs>
																	<clipPath id="SVGID_74_">
																		<use xlink:href="#SVGID_73_"  style="overflow:visible;"/>
																	</clipPath>
																	<path class="st59" d="M737.7,494.2c0,10.5-8.5,18.9-18.9,18.9c-10.5,0-18.9-8.5-18.9-18.9s8.5-18.9,18.9-18.9
																		C729.2,475.3,737.7,483.7,737.7,494.2"/>
																</g>
															</g>
														</g>
													</g>
												</g>
											</g>
										</g>
									</g>
								</g>
							</g>
						</g>
						<g>
							<g>
								<g>
									<g>
										<g>
											<defs>
												<rect id="SVGID_75_" x="98.6" y="86.4" width="785.2" height="770.6"/>
											</defs>
											<clipPath id="SVGID_76_">
												<use xlink:href="#SVGID_75_"  style="overflow:visible;"/>
											</clipPath>
											<g class="st60">
												<g>
													<g>
														<g>
															<g>
																<g>
																	<defs>
																		<rect id="SVGID_77_" x="98.6" y="86.4" width="785.2" height="770.6"/>
																	</defs>
																	<clipPath id="SVGID_78_">
																		<use xlink:href="#SVGID_77_"  style="overflow:visible;"/>
																	</clipPath>
																	<path class="st61" d="M714.9,489.1l4.7,5c1.1,1.2,3.1,1.2,4.3,0l27.3-29.4c3-3.3,7.8-4.7,12.1-3.4
																		c0.3,0.1,0.6,0.2,1,0.3c0.8,0.2,0.9,1.1,0.3,1.6c-18.6,13.9-22.6,16.7-41.7,40.4c-0.8,1-2.3,1-2.9,1
																		c-4.9-0.8-6-7.6-6.1-14.9C713.8,489.1,714.5,488.8,714.9,489.1"/>
																</g>
															</g>
														</g>
													</g>
												</g>
											</g>
										</g>
									</g>
								</g>
							</g>
						</g>
					</g>
				</g>
				<text transform="matrix(1 0 0 1 184.9702 436.7617)" class="st62 st63">Planning</text>
				<text transform="matrix(1 0 0 1 292.3101 570.707)" class="st62 st63">Ongoing</text>
				<text transform="matrix(1 0 0 1 529.0078 570.707)" class="st62 st63">Review</text>
				<text transform="matrix(1 0 0 1 405.1543 436.7612)" class="st62 st63">In progress</text>
				<text transform="matrix(1 0 0 1 654.6963 438.6641)" class="st62 st63">Complete</text>
			</g>
		</g>
		<g>
			<defs>
				<path id="SVGID_79_" d="M2047.9,1481.7H-173c-6.6,0-12-5.4-12-12V-176.4c0-6.6,5.4-12,12-12h2220.9c6.6,0,12,5.4,12,12v1646.1
					C2059.9,1476.3,2054.5,1481.7,2047.9,1481.7z"/>
			</defs>
			<clipPath id="SVGID_80_">
				<use xlink:href="#SVGID_79_"  style="overflow:visible;"/>
			</clipPath>
			<g class="st64">
				<g>
					<path class="st65" d="M1734.9,690.9c-13.5,10.1-62.7,52.6-93.5,158.2c0,0-49.7,120.2-61.2,126.6h28.9
						c0,0,82.6-161.6,127.9-283.3C1737.4,691.2,1736,690.1,1734.9,690.9z"/>
					<g>
						<g>
							<path class="st13" d="M1475.5,741.1c0,0,123.4,111.7,102.2,225.9h-16.1c0,0-20.1-21.3-28.4-89.9c-0.4-3.4-1.2-6.6-2.3-9.8
								C1511,812.4,1475.5,741.1,1475.5,741.1z"/>
							<path class="st65" d="M1414.4,855.6c31.2,24.1,102.9,25,138.1,109.3l-27.2,3.9c-30.8-31.1-70.3-68.5-112.9-108.1
								C1411.8,857.9,1412.8,856.5,1414.4,855.6z"/>
							<g>
								<path class="st13" d="M1604.7,967.4c0,0,56.6-93.2,92.6-111.9c0,0,34.8-26.4,111.6-33.4c0,0-154,110.6-188.1,153.6
									L1604.7,967.4z"/>
								<g>
									<path class="st13" d="M1496.1,666.7c13.5,4.4,168.2,144,91.9,298.8l-10.3,1.5C1593.8,887.7,1542.4,727,1496.1,666.7z"/>
									<path class="st1" d="M1561.9,927.7L1561.9,927.7c-0.4-0.8-0.2-1.8,0.6-2.2l7-4c0.8-0.4,1.8-0.2,2.2,0.6l0,0
										c0.4,0.8,0.2,1.8-0.6,2.2l-7,4C1563.3,928.7,1562.4,928.4,1561.9,927.7z"/>
									<path class="st1" d="M1552.9,939.5L1552.9,939.5c0.2-0.9,1.1-1.4,2-1.2l7.8,2c0.9,0.2,1.4,1.1,1.2,2l0,0
										c-0.2,0.9-1.1,1.4-2,1.1l-7.8-2C1553.2,941.3,1552.7,940.4,1552.9,939.5z"/>
									<path class="st1" d="M1556.1,908.2L1556.1,908.2c-0.5-0.7-0.3-1.7,0.4-2.2l6.6-4.5c0.7-0.5,1.7-0.3,2.2,0.4l0,0
										c0.5,0.7,0.3,1.7-0.4,2.2l-6.6,4.5C1557.7,909.1,1556.6,908.9,1556.1,908.2z"/>
									<path class="st1" d="M1553.1,888L1553.1,888c-0.7-0.6-0.7-1.6-0.1-2.3l5.4-5.9c0.6-0.7,1.6-0.7,2.3-0.1l0,0
										c0.7,0.6,0.7,1.6,0.1,2.3l-5.4,5.9C1554.7,888.6,1553.7,888.6,1553.1,888z"/>
									<path class="st1" d="M1545.7,871.2L1545.7,871.2c-0.7-0.5-0.8-1.6-0.3-2.3l5-6.3c0.5-0.7,1.6-0.8,2.3-0.3l0,0
										c0.7,0.5,0.8,1.6,0.3,2.3l-5,6.3C1547.5,871.6,1546.4,871.7,1545.7,871.2z"/>
									<path class="st1" d="M1537.5,878.6L1537.5,878.6c0.3-0.8,1.2-1.3,2.1-1l7.5,2.8c0.8,0.3,1.3,1.2,1,2.1l0,0
										c-0.3,0.8-1.2,1.3-2.1,1l-7.5-2.8C1537.6,880.3,1537.2,879.4,1537.5,878.6z"/>
									<path class="st1" d="M1540.7,894.7L1540.7,894.7c0.3-0.8,1.2-1.3,2.1-1l7.5,2.8c0.8,0.3,1.3,1.2,1,2.1l0,0
										c-0.3,0.8-1.2,1.3-2.1,1l-7.5-2.8C1540.8,896.5,1540.4,895.6,1540.7,894.7z"/>
									<path class="st1" d="M1546.8,918.2l0.1-0.2c0.3-0.8,1.1-1.2,1.9-0.9l6.1,2.2c0.8,0.3,1.2,1.1,0.9,1.9l-0.1,0.2
										c-0.3,0.8-1.1,1.2-1.9,0.9l-6.1-2.2C1546.9,919.9,1546.5,919,1546.8,918.2z"/>
									<path class="st1" d="M1512.1,947.1v-0.3c0.1-0.8,0.9-1.4,1.7-1.3l6.4,0.9c0.8,0.1,1.4,0.9,1.3,1.7v0.3
										c-0.1,0.8-0.9,1.4-1.7,1.3l-6.4-0.9C1512.6,948.6,1512,947.9,1512.1,947.1z"/>
									<path class="st1" d="M1496.1,932.4v-0.3c-0.1-0.8,0.6-1.5,1.4-1.6l6.5-0.5c0.8-0.1,1.5,0.6,1.6,1.4v0.3
										c0.1,0.8-0.6,1.5-1.4,1.6l-6.5,0.5C1496.9,933.8,1496.1,933.2,1496.1,932.4z"/>
									<path class="st1" d="M1456.2,899.3l-0.1-0.3c-0.2-0.8,0.3-1.6,1.1-1.8l6.3-1.5c0.8-0.2,1.6,0.3,1.8,1.1l0.1,0.3
										c0.2,0.8-0.3,1.6-1.1,1.8l-6.3,1.5C1457.2,900.6,1456.4,900.1,1456.2,899.3z"/>
									<path class="st1" d="M1432.8,879.3l-0.1-0.3c-0.2-0.8,0.3-1.6,1.1-1.8l6.3-1.5c0.8-0.2,1.6,0.3,1.8,1.1l0.1,0.3
										c0.2,0.8-0.3,1.6-1.1,1.8l-6.3,1.5C1433.8,880.6,1433,880.1,1432.8,879.3z"/>
									<path class="st1" d="M1451.2,876.5h0.3c0.8,0,1.5,0.7,1.4,1.5l-0.2,6.5c0,0.8-0.7,1.5-1.5,1.4h-0.3c-0.8,0-1.5-0.7-1.4-1.5
										l0.2-6.5C1449.7,877.1,1450.4,876.4,1451.2,876.5z"/>
									<path class="st1" d="M1472.9,892h0.3c0.8,0,1.5,0.7,1.4,1.5l-0.2,6.5c0,0.8-0.7,1.5-1.5,1.4h-0.3c-0.8,0-1.5-0.7-1.4-1.5
										l0.2-6.5C1471.4,892.7,1472.1,892,1472.9,892z"/>
									<path class="st1" d="M1495.1,908L1495.1,908c0.9,0,1.6,0.8,1.5,1.7l-0.3,8.6c0,0.9-0.8,1.6-1.7,1.5l0,0
										c-0.9,0-1.6-0.8-1.5-1.7l0.3-8.6C1493.5,908.6,1494.2,907.9,1495.1,908z"/>
									<path class="st1" d="M1509,908.5h0.3c0.8,0,1.4,0.7,1.4,1.5l-0.2,6.7c0,0.8-0.7,1.4-1.5,1.4h-0.3c-0.8,0-1.4-0.7-1.4-1.5
										l0.2-6.7C1507.5,909.1,1508.2,908.4,1509,908.5z"/>
									<path class="st1" d="M1516.6,925.3L1516.6,925.3c0.8,0.4,1,1.4,0.6,2.2l-4.6,8c-0.4,0.8-1.4,1-2.2,0.6l0,0
										c-0.8-0.4-1-1.4-0.6-2.2l4.6-8C1514.8,925.1,1515.8,924.8,1516.6,925.3z"/>
									<path class="st1" d="M1532.2,946L1532.2,946c0.9,0.2,1.4,1.1,1.2,2l-2.3,8.9c-0.2,0.9-1.1,1.4-2,1.1l0,0
										c-0.9-0.2-1.4-1.1-1.2-2l2.3-8.9C1530.4,946.3,1531.3,945.7,1532.2,946z"/>
									<path class="st1" d="M1478.5,914.3l-0.1-0.3c-0.2-0.8,0.3-1.6,1.1-1.8l6.3-1.5c0.8-0.2,1.6,0.3,1.8,1.1l0.1,0.3
										c0.2,0.8-0.3,1.6-1.1,1.8l-6.3,1.5C1479.4,915.6,1478.6,915.1,1478.5,914.3z"/>
									<path class="st1" d="M1540.5,846.5L1540.5,846.5c-0.6-0.5-0.7-1.4-0.2-2l4.7-6c0.5-0.6,1.4-0.7,2-0.2l0,0
										c0.6,0.5,0.7,1.4,0.2,2l-4.7,6C1542,846.9,1541.1,847,1540.5,846.5z"/>
									<path class="st1" d="M1531.3,823.1l-0.2-0.2c-0.6-0.4-0.7-1.3-0.2-1.9l3.6-4.5c0.4-0.6,1.3-0.7,1.9-0.2l0.2,0.2
										c0.6,0.4,0.7,1.3,0.2,1.9l-3.6,4.5C1532.7,823.5,1531.9,823.6,1531.3,823.1z"/>
									<path class="st1" d="M1520.8,805.1l-0.2-0.2c-0.6-0.4-0.7-1.3-0.2-1.9l3.6-4.5c0.4-0.6,1.3-0.7,1.9-0.2l0.2,0.2
										c0.6,0.4,0.7,1.3,0.2,1.9l-3.6,4.5C1522.3,805.5,1521.4,805.6,1520.8,805.1z"/>
									<path class="st1" d="M1512.9,819.7v-0.3c0.1-0.7,0.8-1.2,1.5-1.1l5.7,0.8c0.7,0.1,1.2,0.8,1.1,1.5v0.3
										c-0.1,0.7-0.8,1.2-1.5,1.1l-5.7-0.8C1513.2,821.1,1512.7,820.4,1512.9,819.7z"/>
									<path class="st1" d="M1521.3,837.5v-0.3c0.1-0.7,0.8-1.2,1.5-1.1l5.7,0.8c0.7,0.1,1.2,0.8,1.1,1.5v0.3
										c-0.1,0.7-0.8,1.2-1.5,1.1l-5.7-0.8C1521.7,838.9,1521.2,838.2,1521.3,837.5z"/>
									<path class="st1" d="M1529.8,860.5l0.1-0.6c0.1-0.6,0.7-1.1,1.3-1l4.2,0.6c0.6,0.1,1.1,0.7,1,1.3l-0.1,0.6
										c-0.1,0.6-0.7,1.1-1.3,1l-4.2-0.6C1530.1,861.7,1529.7,861.1,1529.8,860.5z"/>
									<path class="st1" d="M1511.3,788.4l-0.5-0.4c-0.5-0.4-0.6-1.1-0.2-1.6l2.2-2.8c0.4-0.5,1.1-0.6,1.6-0.2l0.5,0.4
										c0.5,0.4,0.6,1.1,0.2,1.6l-2.2,2.8C1512.5,788.7,1511.8,788.8,1511.3,788.4z"/>
									<path class="st1" d="M1498.2,780l0.3-0.6c0.3-0.6,0.9-0.8,1.5-0.6l3.2,1.5c0.6,0.3,0.8,0.9,0.6,1.5l-0.3,0.6
										c-0.3,0.6-0.9,0.8-1.5,0.6l-3.2-1.5C1498.2,781.2,1497.9,780.6,1498.2,780z"/>
									<path class="st1" d="M1503.9,798.7v-0.4c0-0.7,0.6-1.3,1.3-1.3h4.6c0.7,0,1.3,0.6,1.3,1.3v0.4c0,0.7-0.6,1.3-1.3,1.3h-4.6
										C1504.4,800,1503.9,799.4,1503.9,798.7z"/>
								</g>
							</g>
						</g>
						<path class="st1" d="M1704.1,737.9h-0.2c-0.8,0-1.5-0.7-1.5-1.5v-6c0-0.8,0.7-1.5,1.5-1.5h0.2c0.8,0,1.5,0.7,1.5,1.5v6
							C1705.6,737.2,1705,737.9,1704.1,737.9z"/>
						<path class="st1" d="M1688.3,770.3L1688.3,770.3c-0.8,0.3-1.8-0.1-2.1-1l-2.7-7.6c-0.3-0.8,0.1-1.8,1-2.1l0,0
							c0.8-0.3,1.8,0.1,2.1,1l2.7,7.6C1689.6,769.1,1689.2,770,1688.3,770.3z"/>
						<path class="st1" d="M1677,798.2L1677,798.2c-0.8,0.3-1.8-0.1-2.1-1l-2.7-7.6c-0.3-0.8,0.1-1.8,1-2.1l0,0
							c0.8-0.3,1.8,0.1,2.1,1l2.7,7.6C1678.2,797,1677.8,797.9,1677,798.2z"/>
						<path class="st1" d="M1663.7,821.6L1663.7,821.6c-0.8,0.3-1.8-0.1-2.1-1l-2.7-7.6c-0.3-0.8,0.1-1.8,1-2.1l0,0
							c0.8-0.3,1.8,0.1,2.1,1l2.7,7.6C1665,820.4,1664.5,821.3,1663.7,821.6z"/>
						<path class="st1" d="M1653.2,847.1L1653.2,847.1c-0.8,0.3-1.8-0.1-2.1-1l-2.7-7.6c-0.3-0.8,0.1-1.8,1-2.1l0,0
							c0.8-0.3,1.8,0.1,2.1,1l2.7,7.6C1654.5,845.9,1654,846.8,1653.2,847.1z"/>
						<path class="st1" d="M1633.6,897.6L1633.6,897.6c-0.8,0.3-1.8-0.1-2.1-1l-3.3-9.1c-0.3-0.8,0.1-1.8,1-2.1l0,0
							c0.8-0.3,1.8,0.1,2.1,1l3.3,9.1C1634.9,896.3,1634.4,897.3,1633.6,897.6z"/>
						<path class="st1" d="M1628.8,912.9L1628.8,912.9c-0.7,0.5-1.7,0.4-2.3-0.3l-6-7.6c-0.5-0.7-0.4-1.7,0.3-2.3l0,0
							c0.7-0.5,1.7-0.4,2.3,0.3l6,7.6C1629.6,911.4,1629.5,912.4,1628.8,912.9z"/>
						<path class="st1" d="M1617.5,934.6L1617.5,934.6c-0.8,0.3-1.7-0.2-2-1.1l-2.8-9.3c-0.3-0.8,0.2-1.7,1.1-2l0,0
							c0.8-0.3,1.7,0.2,2,1.1l2.8,9.3C1618.8,933.5,1618.3,934.4,1617.5,934.6z"/>
						<path class="st1" d="M1617.6,944.6L1617.6,944.6c0,0.9-0.7,1.6-1.6,1.6h-9.7c-0.9,0-1.6-0.7-1.6-1.6l0,0
							c0-0.9,0.7-1.6,1.6-1.6h9.7C1616.9,943,1617.6,943.7,1617.6,944.6z"/>
						<path class="st1" d="M1632.7,922.3l-0.1,0.3c-0.3,0.7-1.2,1-1.9,0.7l-6.7-3.1c-0.7-0.3-1-1.2-0.7-1.9l0.1-0.3
							c0.3-0.7,1.2-1,1.9-0.7l6.7,3.1C1632.8,920.7,1633.1,921.6,1632.7,922.3z"/>
						<path class="st1" d="M1641.5,904.3v0.5c0,0.7-0.5,1.4-1.3,1.4l-6.3,0.4c-0.7,0-1.4-0.5-1.4-1.3v-0.5c0-0.7,0.5-1.4,1.3-1.4
							l6.3-0.4C1640.8,903,1641.4,903.5,1641.5,904.3z"/>
						<path class="st1" d="M1650.5,881v0.5c0,0.7-0.5,1.4-1.3,1.4l-6.3,0.4c-0.7,0-1.4-0.5-1.4-1.3v-0.5c0-0.7,0.5-1.4,1.3-1.4
							l6.3-0.4C1649.8,879.7,1650.4,880.3,1650.5,881z"/>
						<path class="st1" d="M1670.7,831.9v0.3c0,0.8-0.6,1.5-1.4,1.5l-7.4,0.4c-0.8,0-1.5-0.6-1.5-1.4v-0.3c0-0.8,0.6-1.5,1.4-1.5
							l7.4-0.4C1669.9,830.5,1670.6,831.1,1670.7,831.9z"/>
						<path class="st1" d="M1681.4,805v0.3c0,0.8-0.6,1.5-1.4,1.5l-7.4,0.4c-0.8,0-1.5-0.6-1.5-1.4v-0.3c0-0.8,0.6-1.5,1.4-1.5
							l7.4-0.4C1680.7,803.6,1681.4,804.2,1681.4,805z"/>
						<path class="st1" d="M1689.8,785.7l0.2,0.3c0.5,0.6,0.4,1.5-0.3,2l-5.9,4.5c-0.6,0.5-1.5,0.4-2-0.3l-0.2-0.3
							c-0.5-0.6-0.4-1.5,0.3-2l5.9-4.5C1688.4,785,1689.3,785.1,1689.8,785.7z"/>
						<path class="st1" d="M1706.1,748.9l0.2,0.3c0.5,0.6,0.4,1.5-0.3,2l-5.9,4.5c-0.6,0.5-1.5,0.4-2-0.3l-0.2-0.3
							c-0.5-0.6-0.4-1.5,0.3-2l5.9-4.5C1704.7,748.1,1705.6,748.3,1706.1,748.9z"/>
						<path class="st1" d="M1661,857.8v0.3c0,0.8-0.6,1.5-1.4,1.5l-7.4,0.4c-0.8,0-1.5-0.6-1.5-1.4v-0.3c0-0.8,0.6-1.5,1.4-1.5
							l7.4-0.4C1660.3,856.4,1661,857,1661,857.8z"/>
						<path class="st1" d="M1644.4,867.7l-0.6,0.3c-0.6,0.3-1.4,0.1-1.7-0.5l-2.2-4.4c-0.3-0.6-0.1-1.4,0.5-1.7l0.6-0.3
							c0.6-0.3,1.4-0.1,1.7,0.5l2.2,4.4C1645.3,866.7,1645,867.4,1644.4,867.7z"/>
					</g>
				</g>
				<path class="st66" d="M1617.6,1047.1h-78.9c0,0-43.9-28.9-21.9-82.7h123.4C1640.3,964.4,1658,1024.4,1617.6,1047.1z"/>
				<path class="st67" d="M1547.9,1047.1h-9.2c0,0-43.9-28.9-21.9-82.7h25.9C1542.8,964.4,1524.9,1002.5,1547.9,1047.1z"/>
				<path class="st7" d="M1628.9,1014.8L1628.9,1014.8c-1.8,0-3.3-1.2-3.3-2.6c5.1-10.6,5.4-21.8,0-33.7c0-1.5,1.5-2.6,3.3-2.6l0,0
					c1.8,0,3.3,1.2,3.3,2.6c5.7,11.2,5.7,22.5,0,33.7C1632.1,1013.6,1630.7,1014.8,1628.9,1014.8z"/>
			</g>
		</g>
	</g>
</g>
</svg>
