<?xml version="1.0" encoding="utf-8"?>
<!-- Generator: Adobe Illustrator 24.0.1, SVG Export Plug-In . SVG Version: 6.00 Build 0)  -->
<svg version="1.1" xmlns="http://www.w3.org/2000/svg" xmlns:xlink="http://www.w3.org/1999/xlink" x="0px" y="0px"
	 viewBox="0 0 1920 1080" style="enable-background:new 0 0 1920 1080;" xml:space="preserve">
<style type="text/css">
	.st0{filter:url(#Adobe_OpacityMaskFilter);}
	.st1{filter:url(#Adobe_OpacityMaskFilter_1_);}
	.st2{mask:url(#SVGID_1_);fill:url(#SVGID_2_);}
	.st3{fill:url(#SVGID_3_);}
	.st4{filter:url(#Adobe_OpacityMaskFilter_2_);}
	.st5{filter:url(#Adobe_OpacityMaskFilter_3_);}
	.st6{mask:url(#SVGID_4_);fill:url(#SVGID_5_);}
	.st7{fill:url(#SVGID_6_);}
	.st8{filter:url(#Adobe_OpacityMaskFilter_4_);}
	.st9{filter:url(#Adobe_OpacityMaskFilter_5_);}
	.st10{mask:url(#SVGID_7_);fill:url(#SVGID_8_);}
	.st11{fill:url(#SVGID_9_);}
	.st12{filter:url(#Adobe_OpacityMaskFilter_6_);}
	.st13{filter:url(#Adobe_OpacityMaskFilter_7_);}
	.st14{mask:url(#SVGID_10_);fill:url(#SVGID_11_);}
	.st15{fill:url(#SVGID_12_);}
	.st16{filter:url(#Adobe_OpacityMaskFilter_8_);}
	.st17{filter:url(#Adobe_OpacityMaskFilter_9_);}
	.st18{mask:url(#SVGID_13_);fill:url(#SVGID_14_);}
	.st19{fill:url(#SVGID_15_);}
	.st20{fill:url(#SVGID_16_);}
	.st21{fill:url(#SVGID_17_);}
	.st22{fill:url(#SVGID_18_);}
	.st23{fill:#1D1D1B;}
	.st24{fill:url(#SVGID_19_);}
	.st25{fill:#F6F6F6;}
	.st26{fill:url(#SVGID_20_);}
	.st27{fill:url(#SVGID_21_);}
	.st28{display:none;}
	.st29{display:inline;opacity:0.4;}
	.st30{fill:#03546D;}
	.st31{fill:#4D6DFA;}
	.st32{fill:#FFFFFF;}
	.st33{fill:#583189;}
	.st34{fill:#085D77;}
	.st35{fill:#0A7199;}
	.st36{opacity:0.19;}
	.st37{fill:#D7E6FF;}
	.st38{opacity:0.25;}
	.st39{opacity:0.1;}
	.st40{display:inline;fill:#4D6DFA;}
	.st41{fill:url(#SVGID_22_);}
	.st42{fill:url(#SVGID_23_);}
	.st43{fill:url(#SVGID_24_);}
	.st44{fill:url(#SVGID_25_);}
	.st45{fill:url(#SVGID_26_);}
	.st46{fill:url(#SVGID_27_);}
	.st47{fill:url(#SVGID_28_);}
	.st48{fill:url(#SVGID_29_);}
	.st49{fill:url(#SVGID_30_);}
	.st50{fill:url(#SVGID_31_);}
	.st51{fill:url(#SVGID_32_);}
	.st52{opacity:0.5;fill:#DADADA;}
	.st53{fill:url(#SVGID_33_);}
	.st54{fill:url(#SVGID_34_);}
	.st55{fill:url(#SVGID_35_);}
</style>
<g id="Layer_10">
	<g>
		<defs>
			<filter id="Adobe_OpacityMaskFilter" filterUnits="userSpaceOnUse" x="505.35" y="191.91" width="498.32" height="456.96">
				<feFlood  style="flood-color:white;flood-opacity:1" result="back"/>
				<feBlend  in="SourceGraphic" in2="back" mode="normal"/>
			</filter>
		</defs>
		<mask maskUnits="userSpaceOnUse" x="505.35" y="191.91" width="498.32" height="456.96" id="SVGID_1_">
			<g class="st0">
				<defs>
					<filter id="Adobe_OpacityMaskFilter_1_" filterUnits="userSpaceOnUse" x="505.35" y="191.91" width="498.32" height="456.96">
						<feFlood  style="flood-color:white;flood-opacity:1" result="back"/>
						<feBlend  in="SourceGraphic" in2="back" mode="normal"/>
					</filter>
				</defs>
				<mask maskUnits="userSpaceOnUse" x="505.35" y="191.91" width="498.32" height="456.96" id="SVGID_1_">
					<g class="st1">
					</g>
				</mask>
				
					<linearGradient id="SVGID_2_" gradientUnits="userSpaceOnUse" x1="627.5425" y1="823.4531" x2="621.5302" y2="785.3754" gradientTransform="matrix(0.9787 0.2054 -0.2054 0.9787 296.1069 -184.4234)">
					<stop  offset="0" style="stop-color:#FFFFFF"/>
					<stop  offset="1" style="stop-color:#333333"/>
				</linearGradient>
				<path class="st2" d="M657.98,384.44c26.51-31.12,138.2-272.68,255.72-165.11c128.57,117.68,126.42,196.36-52.58,250.5
					s-256.99,210.24-336.11,173.5C446.94,607.08,624.29,423.99,657.98,384.44z"/>
			</g>
		</mask>
		
			<linearGradient id="SVGID_3_" gradientUnits="userSpaceOnUse" x1="627.5425" y1="823.4531" x2="621.5302" y2="785.3754" gradientTransform="matrix(0.9787 0.2054 -0.2054 0.9787 296.1069 -184.4234)">
			<stop  offset="0" style="stop-color:#227F83"/>
			<stop  offset="1" style="stop-color:#00BCAE"/>
		</linearGradient>
		<path class="st3" d="M657.98,384.44c26.51-31.12,138.2-272.68,255.72-165.11c128.57,117.68,126.42,196.36-52.58,250.5
			s-256.99,210.24-336.11,173.5C446.94,607.08,624.29,423.99,657.98,384.44z"/>
		<defs>
			<filter id="Adobe_OpacityMaskFilter_2_" filterUnits="userSpaceOnUse" x="524.57" y="158.59" width="978.41" height="809.79">
				<feFlood  style="flood-color:white;flood-opacity:1" result="back"/>
				<feBlend  in="SourceGraphic" in2="back" mode="normal"/>
			</filter>
		</defs>
		<mask maskUnits="userSpaceOnUse" x="524.57" y="158.59" width="978.41" height="809.79" id="SVGID_4_">
			<g class="st4">
				<defs>
					<filter id="Adobe_OpacityMaskFilter_3_" filterUnits="userSpaceOnUse" x="524.57" y="158.59" width="978.41" height="809.79">
						<feFlood  style="flood-color:white;flood-opacity:1" result="back"/>
						<feBlend  in="SourceGraphic" in2="back" mode="normal"/>
					</filter>
				</defs>
				<mask maskUnits="userSpaceOnUse" x="524.57" y="158.59" width="978.41" height="809.79" id="SVGID_4_">
					<g class="st5">
					</g>
				</mask>
				<linearGradient id="SVGID_5_" gradientUnits="userSpaceOnUse" x1="1079.6854" y1="1199.9276" x2="1069.0017" y2="1132.264">
					<stop  offset="0" style="stop-color:#FFFFFF"/>
					<stop  offset="1" style="stop-color:#333333"/>
				</linearGradient>
				<path class="st6" d="M541.32,967.79c0,0-121.42-276.18,289.6-379.12s117.77-380.77,412.85-428.17
					c295.08-47.4,257.69,807.89,257.69,807.89L541.32,967.79z"/>
			</g>
		</mask>
		<linearGradient id="SVGID_6_" gradientUnits="userSpaceOnUse" x1="1079.6854" y1="1199.9276" x2="1069.0017" y2="1132.264">
			<stop  offset="0" style="stop-color:#227F83"/>
			<stop  offset="1" style="stop-color:#00BCAE"/>
		</linearGradient>
		<path class="st7" d="M541.32,967.79c0,0-121.42-276.18,289.6-379.12s117.77-380.77,412.85-428.17
			c295.08-47.4,257.69,807.89,257.69,807.89L541.32,967.79z"/>
		<defs>
			<filter id="Adobe_OpacityMaskFilter_4_" filterUnits="userSpaceOnUse" x="351.43" y="443.1" width="346.29" height="186.01">
				<feFlood  style="flood-color:white;flood-opacity:1" result="back"/>
				<feBlend  in="SourceGraphic" in2="back" mode="normal"/>
			</filter>
		</defs>
		<mask maskUnits="userSpaceOnUse" x="351.43" y="443.1" width="346.29" height="186.01" id="SVGID_7_">
			<g class="st8">
				<defs>
					<filter id="Adobe_OpacityMaskFilter_5_" filterUnits="userSpaceOnUse" x="351.43" y="443.1" width="346.29" height="186.01">
						<feFlood  style="flood-color:white;flood-opacity:1" result="back"/>
						<feBlend  in="SourceGraphic" in2="back" mode="normal"/>
					</filter>
				</defs>
				<mask maskUnits="userSpaceOnUse" x="351.43" y="443.1" width="346.29" height="186.01" id="SVGID_7_">
					<g class="st9">
					</g>
				</mask>
				<linearGradient id="SVGID_8_" gradientUnits="userSpaceOnUse" x1="524.5742" y1="774.8044" x2="524.5742" y2="633.8237">
					<stop  offset="0" style="stop-color:#FFFFFF"/>
					<stop  offset="1" style="stop-color:#333333"/>
				</linearGradient>
				<path class="st10" d="M351.43,629.11h344.86c0,0,17.89-88.88-73.2-79.87c0,0-8.13-106.15-87.84-106.15
					c-79.71,0-76.46,139.9-76.46,139.9s-10.2-25.79-47.17-25.79C374.64,557.21,351.43,629.11,351.43,629.11z"/>
			</g>
		</mask>
		<linearGradient id="SVGID_9_" gradientUnits="userSpaceOnUse" x1="524.5742" y1="774.8044" x2="524.5742" y2="633.8237">
			<stop  offset="0" style="stop-color:#227F83"/>
			<stop  offset="1" style="stop-color:#00BCAE"/>
		</linearGradient>
		<path class="st11" d="M351.43,629.11h344.86c0,0,17.89-88.88-73.2-79.87c0,0-8.13-106.15-87.84-106.15
			c-79.71,0-76.46,139.9-76.46,139.9s-10.2-25.79-47.17-25.79C374.64,557.21,351.43,629.11,351.43,629.11z"/>
		<defs>
			<filter id="Adobe_OpacityMaskFilter_6_" filterUnits="userSpaceOnUse" x="424.22" y="262.87" width="347.4" height="104.02">
				<feFlood  style="flood-color:white;flood-opacity:1" result="back"/>
				<feBlend  in="SourceGraphic" in2="back" mode="normal"/>
			</filter>
		</defs>
		<mask maskUnits="userSpaceOnUse" x="424.22" y="262.87" width="347.4" height="104.02" id="SVGID_10_">
			<g class="st12">
				<defs>
					<filter id="Adobe_OpacityMaskFilter_7_" filterUnits="userSpaceOnUse" x="424.22" y="262.87" width="347.4" height="104.02">
						<feFlood  style="flood-color:white;flood-opacity:1" result="back"/>
						<feBlend  in="SourceGraphic" in2="back" mode="normal"/>
					</filter>
				</defs>
				<mask maskUnits="userSpaceOnUse" x="424.22" y="262.87" width="347.4" height="104.02" id="SVGID_10_">
					<g class="st13">
					</g>
				</mask>
				<linearGradient id="SVGID_11_" gradientUnits="userSpaceOnUse" x1="1434.6542" y1="273.9438" x2="1076.5399" y2="293.3016">
					<stop  offset="0" style="stop-color:#FFFFFF"/>
					<stop  offset="1" style="stop-color:#333333"/>
				</linearGradient>
				<path class="st14" d="M771.62,366.89H425.65c0,0-17.95-49.7,73.44-44.66c0,0,8.16-59.36,88.13-59.36
					c79.97,0,76.7,78.24,76.7,78.24s10.23-14.42,47.33-14.42C748.34,326.68,771.62,366.89,771.62,366.89z"/>
			</g>
		</mask>
		<linearGradient id="SVGID_12_" gradientUnits="userSpaceOnUse" x1="1434.6542" y1="273.9438" x2="1076.5399" y2="293.3016">
			<stop  offset="0" style="stop-color:#227F83"/>
			<stop  offset="1" style="stop-color:#00BCAE"/>
		</linearGradient>
		<path class="st15" d="M771.62,366.89H425.65c0,0-17.95-49.7,73.44-44.66c0,0,8.16-59.36,88.13-59.36
			c79.97,0,76.7,78.24,76.7,78.24s10.23-14.42,47.33-14.42C748.34,326.68,771.62,366.89,771.62,366.89z"/>
		<defs>
			<filter id="Adobe_OpacityMaskFilter_8_" filterUnits="userSpaceOnUse" x="942.5" y="203.09" width="602.53" height="129.88">
				<feFlood  style="flood-color:white;flood-opacity:1" result="back"/>
				<feBlend  in="SourceGraphic" in2="back" mode="normal"/>
			</filter>
		</defs>
		<mask maskUnits="userSpaceOnUse" x="942.5" y="203.09" width="602.53" height="129.88" id="SVGID_13_">
			<g class="st16">
				<defs>
					<filter id="Adobe_OpacityMaskFilter_9_" filterUnits="userSpaceOnUse" x="942.5" y="203.09" width="602.53" height="129.88">
						<feFlood  style="flood-color:white;flood-opacity:1" result="back"/>
						<feBlend  in="SourceGraphic" in2="back" mode="normal"/>
					</filter>
				</defs>
				<mask maskUnits="userSpaceOnUse" x="942.5" y="203.09" width="602.53" height="129.88" id="SVGID_13_">
					<g class="st17">
					</g>
				</mask>
				<linearGradient id="SVGID_14_" gradientUnits="userSpaceOnUse" x1="3271.342" y1="170.4272" x2="2891.6392" y2="190.9519">
					<stop  offset="0" style="stop-color:#FFFFFF"/>
					<stop  offset="1" style="stop-color:#333333"/>
				</linearGradient>
				<path class="st18" d="M942.5,332.97h601.12c0,0,17.67-87.78-72.3-78.88c0,0-1.86-51-80.58-51s-81.68,84.33-81.68,84.33
					s-10.07-25.47-46.59-25.47S942.5,332.97,942.5,332.97z"/>
			</g>
		</mask>
		<linearGradient id="SVGID_15_" gradientUnits="userSpaceOnUse" x1="3271.342" y1="170.4272" x2="2891.6392" y2="190.9519">
			<stop  offset="0" style="stop-color:#227F83"/>
			<stop  offset="1" style="stop-color:#00BCAE"/>
		</linearGradient>
		<path class="st19" d="M942.5,332.97h601.12c0,0,17.67-87.78-72.3-78.88c0,0-1.86-51-80.58-51s-81.68,84.33-81.68,84.33
			s-10.07-25.47-46.59-25.47S942.5,332.97,942.5,332.97z"/>
		
			<linearGradient id="SVGID_16_" gradientUnits="userSpaceOnUse" x1="4254.9116" y1="-775.0153" x2="3650.3171" y2="-742.334" gradientTransform="matrix(1 3.000000e-04 3.000000e-04 0.4999 -0.8946 1272.7515)">
			<stop  offset="0" style="stop-color:#227F83"/>
			<stop  offset="1" style="stop-color:#00BCAE"/>
		</linearGradient>
		<path class="st20" d="M545.86,977.5l951.59,0.37c2.61,0,4.72-2.12,4.72-4.72l0,0c0-2.6-2.11-4.71-4.72-4.71l-951.59-0.37
			c-2.61,0-4.72,2.12-4.72,4.72l0,0C541.14,975.39,543.25,977.5,545.86,977.5z"/>
	</g>
</g>
<g id="Layer_11">
	<linearGradient id="SVGID_17_" gradientUnits="userSpaceOnUse" x1="1008.5386" y1="908.8126" x2="1008.5386" y2="941.6066">
		<stop  offset="0" style="stop-color:#227F83"/>
		<stop  offset="1" style="stop-color:#00BCAE"/>
	</linearGradient>
	<rect x="960.99" y="777.49" class="st21" width="95.1" height="186"/>
	<linearGradient id="SVGID_18_" gradientUnits="userSpaceOnUse" x1="1017.1646" y1="705.1501" x2="1047.7114" y2="935.1509">
		<stop  offset="0" style="stop-color:#227F83"/>
		<stop  offset="1" style="stop-color:#00BCAE"/>
	</linearGradient>
	<path class="st22" d="M1364.8,418.04v444.32c0,16.23-13.15,29.38-29.38,29.38H681.66c-16.23,0-29.38-13.15-29.38-29.38V418.04
		c0-16.23,13.15-29.38,29.38-29.38h653.76C1351.64,388.66,1364.8,401.81,1364.8,418.04z"/>
	<path class="st23" d="M1364.8,418.04v371.41H652.28V418.04c0-16.23,13.15-29.38,29.38-29.38h653.76
		C1351.64,388.66,1364.8,401.81,1364.8,418.04z"/>
	<linearGradient id="SVGID_19_" gradientUnits="userSpaceOnUse" x1="1001.5367" y1="950.9465" x2="1031.808" y2="1005.1827">
		<stop  offset="0" style="stop-color:#227F83"/>
		<stop  offset="1" style="stop-color:#00BCAE"/>
	</linearGradient>
	<rect x="852.61" y="958.6" class="st24" width="311.86" height="9.79"/>
	<circle class="st25" cx="1010.7" cy="841.48" r="20.18"/>
	<linearGradient id="SVGID_20_" gradientUnits="userSpaceOnUse" x1="905.1404" y1="318.4906" x2="1103.7959" y2="859.5915">
		<stop  offset="0" style="stop-color:#F79886"/>
		<stop  offset="1" style="stop-color:#FF626E"/>
	</linearGradient>
	<path class="st26" d="M1344.37,432.14v340.78H672.71V432.14c0-14.89,12.07-26.96,26.95-26.96h617.74
		c13.13,0,24.08,9.38,26.46,21.82C1344.2,428.66,1344.37,430.38,1344.37,432.14z"/>
	<linearGradient id="SVGID_21_" gradientUnits="userSpaceOnUse" x1="1986.0045" y1="444.5" x2="1769.8461" y2="444.5">
		<stop  offset="0" style="stop-color:#F79886"/>
		<stop  offset="1" style="stop-color:#FF626E"/>
	</linearGradient>
	<rect x="673" y="432" class="st27" width="674" height="25"/>
</g>
<g id="Layer_9" class="st28">
	<g class="st29">
		<polygon class="st25" points="1056.04,405.18 822.43,772.92 790.84,772.92 975.3,405.18 		"/>
		<path class="st25" d="M1343.87,427l-334.78,345.92H879.94l270.47-367.74h167C1330.54,405.18,1341.48,414.57,1343.87,427z"/>
	</g>
</g>
<g id="Layer_12">
	<g>
		<g>
			<g>
				<rect x="1062.25" y="326.87" class="st30" width="5.04" height="158.92"/>
			</g>
		</g>
		<g>
			<g>
				<rect x="1037.04" y="326.87" class="st30" width="5.04" height="158.92"/>
			</g>
		</g>
		<g>
			<g>
				<path class="st30" d="M1052.17,563.69c6.95,0,12.61-6.99,12.61-15.58c0-7.52-4.34-13.82-10.09-15.27v-6.54
					c0-1.72-1.13-3.12-2.52-3.12c-1.39,0-2.52,1.4-2.52,3.12v12.46h2.52c4.17,0,7.56,4.19,7.56,9.35c0,5.15-3.39,9.35-7.56,9.35
					c-4.17,0-7.56-4.19-7.56-9.35c0-1.72-1.13-3.12-2.52-3.12s-2.52,1.4-2.52,3.12C1039.56,556.7,1045.22,563.69,1052.17,563.69z"/>
			</g>
		</g>
		<polygon class="st31" points="1039.56,524.74 1064.78,524.74 1069.82,485.79 1034.52,485.79 		"/>
	</g>
</g>
<g id="Layer_15">
	<g>
		<g>
			<path class="st32" d="M949.98,703.55c-0.59,0.18-1.23,0.07-1.72-0.31c-1.84-1.43-3.18-3.34-3.87-5.54l-28.3-90.1
				c-1.87-5.96,1.45-12.33,7.42-14.21l126.15-39.62c5.96-1.87,12.33,1.45,14.21,7.42l25.47,81.1c0.31,1-0.24,2.06-1.24,2.37
				l-39.67,12.46c-0.73,0.23-1.52,0-2.01-0.59c-9.12-10.89-14.07-16.8-16.76-20.04l-1.4,15.84c-0.07,0.76-0.59,1.41-1.32,1.64l0,0
				c-0.73,0.23-1.53,0-2.01-0.59l-29.88-35.69l-2.3,26.01c-0.07,0.76-0.59,1.41-1.32,1.64s-1.52,0-2.01-0.59l-29.88-35.69
				l-8.23,92.88c-0.06,0.69-0.49,1.29-1.13,1.56C950.1,703.5,950.04,703.53,949.98,703.55z M924.63,596.99
				c-3.97,1.25-6.19,5.5-4.94,9.47l28.29,90.06l8.19-92.37c0.07-0.76,0.59-1.41,1.32-1.64c0.73-0.23,1.52,0,2.01,0.59l29.88,35.69
				l2.3-26.01c0.07-0.76,0.59-1.41,1.32-1.64l0,0c0.73-0.23,1.52,0,2.01,0.59l29.88,35.69l1.4-15.82c0.07-0.76,0.59-1.4,1.32-1.63
				c0,0,0,0,0,0c0.73-0.23,1.53,0.01,2.02,0.6c0.21,0.25,15.19,18.14,18.87,22.54l36.66-11.51l-24.9-79.29
				c-1.25-3.97-5.5-6.19-9.47-4.94L924.63,596.99z"/>
		</g>
		<g>
			<path class="st32" d="M1084.12,665.69l-126.15,39.62c-3.52,1.11-7.39,0.4-10.34-1.88c-0.51-0.4-0.78-1.02-0.72-1.66l8.63-97.42
				c0.07-0.76,0.59-1.41,1.32-1.64c0.73-0.23,1.52,0,2.01,0.59l29.88,35.69l2.3-26.01c0.07-0.76,0.59-1.41,1.32-1.64l0,0
				c0.73-0.23,1.52,0,2.01,0.59l29.88,35.69l1.4-15.82c0.07-0.76,0.59-1.4,1.32-1.63c0,0,0,0,0,0c0.73-0.23,1.53,0.01,2.02,0.6
				c0.21,0.25,15.19,18.14,18.87,22.54l38.46-12.08c1-0.31,2.06,0.24,2.37,1.24l2.83,9.01
				C1093.41,657.45,1090.08,663.82,1084.12,665.69z M950.77,701c1.84,1.08,4.04,1.35,6.07,0.71l126.15-39.62
				c3.97-1.25,6.19-5.5,4.94-9.47l-2.26-7.21l-37.86,11.89c-0.73,0.23-1.52,0-2.01-0.59c-9.12-10.89-14.07-16.8-16.76-20.04
				l-1.4,15.84c-0.07,0.76-0.59,1.41-1.32,1.64l0,0c-0.73,0.23-1.53,0-2.01-0.59l-29.88-35.69l-2.3,26.01
				c-0.07,0.76-0.59,1.41-1.32,1.64s-1.52,0-2.01-0.59l-29.88-35.69L950.77,701z"/>
		</g>
	</g>
</g>
<g id="Layer_16">
	<g>
		<path class="st30" d="M1050.5,557.55c-4.07-0.9-6.61-5.17-5.65-9.53c0.32-1.46-0.52-2.88-1.88-3.18c-1.36-0.3-2.72,0.64-3.04,2.1
			c-1.6,7.27,2.63,14.4,9.42,15.89c2.64,0.58,3.02-0.54,4.97-0.11l-1.52-2.38C1051.31,561.1,1052.2,557.93,1050.5,557.55z"/>
	</g>
</g>
<g id="Layer_1">
	<polygon class="st33" points="962.21,269.36 1309.56,172.22 1310.21,172.04 1485.43,269.51 1483.81,273.53 1313.09,178.84 
		1312.91,324.06 1310.67,327.65 1308.46,177.1 963.09,273.69 	"/>
	<path class="st34" d="M1288.08,552.72l6.79-8.08l12.02-14.29l-12.02-13.98l-7-8.14l7-8.33l11.98-14.24l-11.98-14.09l-6.79-7.98
		l6.79-7.98l16.39-19.28l7.42,8.73l15.76,18.53l-6.79,7.98L1315.38,486l12.27,14.27l6.58,7.65l-6.58,7.82l-12.23,14.55l12.23,14.23
		l6.79,7.9l-6.79,8.08l-12.02,14.29l12.02,13.98l7,8.14l-7,8.33l-11.98,14.24l11.98,14.09l6.79,7.98l-18.91,22.24l12.12,14.27
		l6.79,7.98l-18.91,22.24l12.12,14.27l6.79,7.98l-18.91,22.24l12.12,14.27l6.79,7.98l-6.79,7.98l-12.12,14.27l12.12,14.26l6.79,7.98
		l-6.79,7.98l-12.12,14.27l12.12,14.26l6.79,7.98l-6.79,7.98l-8.97,10.56l-7.42,8.73l-7.42-8.73l-8.97-10.56l-6.79-7.98l18.91-22.24
		l-12.12-14.27l-6.79-7.98l6.79-7.98l12.12-14.26l-12.12-14.27l-6.79-7.98l6.79-7.98l12.12-14.27l-12.12-14.26l-6.79-7.98l6.79-7.98
		l12.12-14.27l-12.12-14.26l-6.79-7.98l6.79-7.98l12.12-14.27l-12.12-14.26l-6.79-7.98l6.79-7.98l12.27-14.44l-12.27-14.27
		l-6.58-7.65l6.58-7.82l12.23-14.55l-12.23-14.22L1288.08,552.72z M1327.31,463.58l-16.04-18.87l-0.29,0.34l-0.63,0.74l-15.13,17.8
		l15.18,17.86l0.53-0.63l0.88,1.02L1327.31,463.58z M1327.1,507.97l-15.28-17.77l-0.56,0.65l-0.85-1L1295,508.18l15.43,17.95
		l0.7-0.83l0.71,0.82L1327.1,507.97z M1295.21,864.01l15.76,18.54l0.29,0.34l0.29-0.34l15.76-18.54l-15.34-18.05l-0.7,0.83
		l-0.7-0.83L1295.21,864.01z M1295.21,819.52l15.35,18.05l0.7-0.83l0.7,0.83l15.34-18.05l-15.34-18.05l-0.7,0.82l-0.7-0.82
		L1295.21,819.52z M1295.21,775.03l15.35,18.05l0.7-0.83l0.7,0.83l15.34-18.05l-15.34-18.05l-0.7,0.83l-0.7-0.83L1295.21,775.03z
		 M1295.21,730.53l15.35,18.05l0.7-0.83l0.7,0.83l15.34-18.05l-15.34-18.05l-0.7,0.83l-0.7-0.83L1295.21,730.53z M1295.21,686.04
		l15.35,18.05l0.7-0.82l0.7,0.82l15.34-18.05l-15.34-18.05l-0.7,0.83l-0.7-0.83L1295.21,686.04z M1295.21,641.55l15.35,18.05
		l0.7-0.83l0.7,0.83l15.34-18.05l-15.18-17.86l-0.53,0.63l-0.88-1.02L1295.21,641.55z M1295.43,597.16l15.28,17.77l0.56-0.65l0.85,1
		l15.41-18.33L1312.09,579l-0.7,0.83l-0.71-0.82L1295.43,597.16z M1310.65,570.62l0.7-0.83l0.71,0.82l15.26-18.15l-15.43-17.95
		l-0.7,0.83l-0.71-0.82l-15.26,18.15L1310.65,570.62z"/>
	<path class="st34" d="M1286.82,242.6l6.79-7.98l12.12-14.27l-12.12-14.26l-6.79-7.98l6.79-7.98l9.9-11.65l2.23-2.62l-0.63-0.74
		h9.79l-0.63,0.74l5.84,6.87l6.28,7.39l6.79,7.99l-6.79,7.99l-12.12,14.25l18.91,22.25l-6.79,7.99l-12.12,14.25l18.91,22.25
		l-6.79,7.99l-8.97,10.55l-7.42,8.73l-7.42-8.73l-8.97-10.55l-6.79-7.98l6.79-7.98l12.12-14.27L1286.82,242.6z M1326.05,198.11
		l-12.96-15.25l-2.39-2.81l-0.7,0.83l-0.7-0.83l-0.78,0.92l-14.56,17.14l15.07,17.73l0.27,0.32l0.7-0.83l0.7,0.83l2.35-2.76
		L1326.05,198.11z M1293.95,287.1l15.76,18.53l0.29,0.34l0.35-0.41l2.59-3.04l13.11-15.42l-13.07-15.38l-2.28-2.68l-0.7,0.83
		l-0.7-0.83L1293.95,287.1z M1309.3,260.65l0.39-0.45l0.32-0.37l0.7,0.83l2.29-2.69l13.06-15.35l-13.02-15.31l-2.33-2.74l-0.7,0.83
		l-0.7-0.83l-0.14,0.16l-15.21,17.89L1309.3,260.65z"/>
	<g>
		<g>
			<g>
				<polygon class="st34" points="1173.71,315.75 1202.72,280.14 1233.82,314.25 1263.28,278.02 1259.64,273.92 1233.62,305.92 
					1202.52,271.81 1173.54,307.38 1141.73,271.94 1109.7,305.75 1082.92,271.69 1053.38,306.45 1022.31,271.87 992.13,306.13 
					965.73,273.91 962.1,278.03 992.01,314.52 1022.35,280.08 1053.48,314.73 1082.78,280.25 1109.37,314.07 1141.64,280.01 				"/>
			</g>
		</g>
	</g>
	<g>
		<g>
			<polygon class="st34" points="1363.03,278.78 1366.12,282.56 1386.27,307.12 1392.94,315.26 1400.11,307.12 1422.32,281.9 
				1423.28,280.82 1424.25,281.9 1446.91,307.12 1454.41,315.47 1461.51,307.12 1482.93,281.9 1483.71,280.98 1484.43,281.9 
				1504.25,307.12 1510.3,314.81 1514.29,310.6 1511.6,307.12 1510.9,306.21 1510.63,306.49 1491.29,281.9 1483.85,272.44 
				1454.31,307.19 1454.25,307.12 1431.59,281.9 1423.24,272.61 1415.05,281.9 1393.06,306.88 1372.6,281.9 1366.66,274.65 			"/>
		</g>
	</g>
	<g>
		<g>
			<g>
				<g>
					<path class="st35" d="M1336.48,435.4v457.53h-50.43V435.4H1336.48z M1294.87,882.55h32.78V445.78h-32.78V882.55z"/>
				</g>
			</g>
		</g>
	</g>
	<rect x="1274.07" y="421.32" class="st35" width="73.13" height="23.73"/>
	<rect x="1282.26" y="409.45" class="st35" width="56.74" height="11.87"/>
	<polygon class="st36" points="1284.57,421.33 1339.14,421.33 1339.14,421.32 1339,421.32 1339,415.84 1284.74,421.32 	"/>
	<rect x="1294.87" y="373.86" class="st35" width="31.52" height="37.08"/>
	<polygon class="st36" points="1296.21,409.51 1326.39,409.51 1326.39,405.21 	"/>
	<path class="st31" d="M1261.46,353.84v37.99c0,1.31,0.24,2.55,0.69,3.66c1.17,2.99,3.74,5.05,6.73,5.05h70.91
		c4.09,0,7.41-3.9,7.41-8.72v-65.61c0-0.89-0.12-1.76-0.33-2.57c-0.93-3.56-3.75-6.15-7.08-6.15h-47.44
		c-16.01,0-29.18,14.33-30.73,32.69C1261.51,351.38,1261.46,352.6,1261.46,353.84z"/>
	<path class="st37" d="M1265.24,355.08v12.85h28.74c5.71,0,10.35-5.45,10.35-12.17v-33.81h-10.92c-7.78,0-14.81,3.71-19.91,9.7
		C1268.4,337.64,1265.24,345.93,1265.24,355.08z"/>
	<path class="st37" d="M1340.89,354.58h-31.52v-32.63h23.32c2.09,0,4,0.92,5.45,2.44c1.68,1.77,2.75,4.34,2.75,7.2V354.58z"/>
	<path class="st35" d="M1335.22,164v152.02h-50.43V164H1335.22z M1293.61,305.63h32.78V174.38h-32.78V305.63z"/>
	<g>
		<g>
			<path class="st35" d="M1053.45,306.38l-0.06,0.07l-0.07-0.07H1053.45z M1173.54,307.38l-0.91-1.01h1.73L1173.54,307.38z
				 M962.09,270.78h301.51l21.19,31.49l9.25,13.75l0.5,0.74H923L962.09,270.78z M1276.29,306.38l-16.33-24.27l-0.64-0.95H965.74
				l-21.43,25.21H1276.29z"/>
		</g>
	</g>
	<g>
		<g>
			<path class="st35" d="M1323.94,317.49l11.28-13.27l27.8-32.7h121.14l0.31,0.4l7.7,9.98h-125.49l-21.43,25.21h166.36l2.69,3.48
				l5.31,6.9L1323.94,317.49L1323.94,317.49z M1483.71,280.99l0.72,0.92h-1.5L1483.71,280.99z M1423.28,280.82l0.97,1.08h-1.93
				L1423.28,280.82z"/>
		</g>
	</g>
	<rect x="1253.69" y="892.93" class="st35" width="114.55" height="28.07"/>
	<polygon class="st38" points="1259.26,921 1368.24,921 1368.24,910.12 	"/>
	
		<rect x="1231.41" y="921" transform="matrix(-1 -1.224647e-16 1.224647e-16 -1 2618.7397 1892.5378)" class="st35" width="155.92" height="50.53"/>
	<path class="st35" d="M1261.67,370.19v22.31c0,1.05,0.17,2.06,0.48,2.99c1.17,2.99,3.74,5.05,6.73,5.05h70.91
		c4.09,0,7.41-3.9,7.41-8.72v-5.94h0v-56.71c0-0.11,0-0.22,0-0.32c-0.02-0.75-0.14-1.48-0.32-2.17
		c-8.19,13.82-26.15,35.58-58.87,37.91C1278.7,365.25,1269.78,367.3,1261.67,370.19z"/>
	<path class="st35" d="M1261.67,391.66v0.85c0,1.05,0.17,2.06,0.48,2.99c1.17,2.99,3.74,5.05,6.73,5.05h70.91
		c4.09,0,7.41-3.9,7.41-8.72v-5.94h0v-23.84l0,0.01c-13.98,12.53-33.45,23.34-59.71,25.21
		C1278.56,387.89,1269.9,389.44,1261.67,391.66z"/>
	<path class="st39" d="M1310.82,400.55h28.97c4.09,0,7.41-3.9,7.41-8.72v-5.94C1336.69,392.16,1324.63,397.34,1310.82,400.55z"/>
</g>
<g id="Layer_14" class="st28">
	<rect x="1015.61" y="316.45" class="st40" width="74.38" height="21.81"/>
</g>
<g id="Layer_6">
	
		<linearGradient id="SVGID_22_" gradientUnits="userSpaceOnUse" x1="1471.3771" y1="917.1822" x2="1443.556" y2="849.1752" gradientTransform="matrix(0.8486 -0.5201 0.5168 0.8541 -896.5525 661.6116)">
		<stop  offset="0" style="stop-color:#FFD7BA"/>
		<stop  offset="1" style="stop-color:#CE6C58"/>
	</linearGradient>
	<path class="st41" d="M870.84,632.64c0,0,2.08,7.2-13.32,17.47c-14.38,9.6-8.46,18.11-51.25,68.38
		c-25.24,29.65-33.88-2.88-36.72-34.55c-1.97-22-1.15-43.58-1.15-43.58l4.58-4.01c5.68-4.96,14.56-1.77,15.85,5.68
		c1.56,9.03,3.83,20.2,6.74,29.92c1.46,4.9,3.09,9.43,4.88,13.13c9.27,19.14,45.82-36.99,45.82-36.99l-7.55-7.4l11.53,3.8
		L870.84,632.64z"/>
</g>
<g id="Layer_8">
	
		<linearGradient id="SVGID_23_" gradientUnits="userSpaceOnUse" x1="995.3812" y1="951.384" x2="1005.98" y2="919.5874" gradientTransform="matrix(0.9936 0 0 1 -238.7298 0)">
		<stop  offset="0" style="stop-color:#FFD7BA"/>
		<stop  offset="1" style="stop-color:#CE6C58"/>
	</linearGradient>
	<polygon class="st42" points="766.21,964.94 738.24,964.94 731,949.04 738.57,941.1 748.61,894.72 755.68,913.93 743.51,946.39 
		749.11,956.99 	"/>
	
		<linearGradient id="SVGID_24_" gradientUnits="userSpaceOnUse" x1="1040.7279" y1="948.416" x2="1042.4944" y2="918.8276" gradientTransform="matrix(0.9936 0 0 1 -238.7298 0)">
		<stop  offset="0" style="stop-color:#FFD7BA"/>
		<stop  offset="1" style="stop-color:#CE6C58"/>
	</linearGradient>
	<polygon class="st43" points="815.9,964.94 772.79,964.94 776.75,957.32 776.75,914.26 789.91,905.99 786.29,953.68 797.81,957.98 
			"/>
	<polygon class="st23" points="764.24,756.82 731,905.65 757.99,924.2 795.8,760.58 	"/>
	
		<linearGradient id="SVGID_25_" gradientUnits="userSpaceOnUse" x1="1032.693" y1="785.0897" x2="1021.7629" y2="914.2634" gradientTransform="matrix(0.9936 0 0 1 -238.7298 0)">
		<stop  offset="0" style="stop-color:#F79886"/>
		<stop  offset="1" style="stop-color:#FF626E"/>
	</linearGradient>
	<polygon class="st44" points="770.5,756.82 767.53,925.69 795.8,913.1 795.8,760.58 	"/>
	
		<linearGradient id="SVGID_26_" gradientUnits="userSpaceOnUse" x1="1014.8381" y1="642.3217" x2="1055.9087" y2="618.4743" gradientTransform="matrix(0.9936 0 0 1 -238.7298 0)">
		<stop  offset="0" style="stop-color:#FFD7BA"/>
		<stop  offset="1" style="stop-color:#CE6C58"/>
	</linearGradient>
	<path class="st45" d="M795.55,624.07c0,0-1.78,12.97-2.72,20.59c-0.95,7.62-13.2-11.26-13.2-11.26l13.2-21.77L795.55,624.07z"/>
	<path class="st23" d="M779.63,633.39c0,0-6.8,0-12.63,3.97c-5.83,3.97-17.57,119.57-16.58,119.57c0.6,0,16.23,4.55,28.34,8.11
		c8.67,2.55,18.02,0.06,24.32-6.45l0,0l-8.78-125.2C794.3,633.39,793.37,648.96,779.63,633.39z"/>
	<polygon class="st23" points="749.11,956.99 766.21,964.94 738.24,964.94 731,949.04 738.57,941.1 743.51,946.39 	"/>
	<polygon class="st23" points="815.9,964.94 772.79,964.94 776.75,957.32 776.75,955.34 786.29,953.68 797.81,957.98 	"/>
</g>
<g id="Layer_13">
	<g>
		
			<linearGradient id="SVGID_27_" gradientUnits="userSpaceOnUse" x1="1044.8318" y1="635.8427" x2="1035.5579" y2="574.8995" gradientTransform="matrix(0.9936 0 0 1 -238.7298 0)">
			<stop  offset="0" style="stop-color:#FFD7BA"/>
			<stop  offset="1" style="stop-color:#CE6C58"/>
		</linearGradient>
		<path class="st46" d="M806.04,617.88v-19.1c0,0-8.01-12.03-22.93-2.32c-14.92,9.72,22.93,39.75,22.93,39.75v-15.01h6.03
			L806.04,617.88z"/>
		
			<linearGradient id="SVGID_28_" gradientUnits="userSpaceOnUse" x1="787.4781" y1="588.4734" x2="763.3749" y2="588.4734" gradientTransform="matrix(-0.9936 0 0 1 1481.1764 0)">
			<stop  offset="0" style="stop-color:#F79886"/>
			<stop  offset="1" style="stop-color:#FF626E"/>
		</linearGradient>
		<path class="st47" d="M841.44,556.68c0,0,17.51,32.65-35.4,42.09c-10.19,0-8.93,8.84-8.93,8.84l-4.36,1.81v7.75
			c0,0-4.08-14.99-6.15-6.72c-2.07,8.27,3.58,8.01,3.58,8.01l-2.59,1.79c0,0-25.91-6.7-15.64-23.5
			C782.22,579.97,841.44,556.68,841.44,556.68z"/>
	</g>
</g>
<g id="Layer_7">
	
		<linearGradient id="SVGID_29_" gradientUnits="userSpaceOnUse" x1="710.7734" y1="755.23" x2="728.2931" y2="570.6002" gradientTransform="matrix(-0.9936 0 0 1 1481.1764 0)">
		<stop  offset="0" style="stop-color:#FFD7BA"/>
		<stop  offset="1" style="stop-color:#CE6C58"/>
	</linearGradient>
	<path class="st48" d="M767,637.37L767,637.37c9.01,5.59,14.18,15.77,13.4,26.39l-3.68,49.88l14.06,70.28l-9.11,21.36l-13.44-8.96
		l10.65-11.71l-6.09-1.03l3.92-4.65l-19.84-68.94c-1.02-3.55-1.51-7.23-1.45-10.93C755.64,685.8,757.19,653.33,767,637.37z"/>
</g>
<g id="Layer_5">
	
		<linearGradient id="SVGID_30_" gradientUnits="userSpaceOnUse" x1="1927" y1="915.2462" x2="1886.9069" y2="819.2339" gradientTransform="matrix(1 0 0 1 -1237.1093 0)">
		<stop  offset="0" style="stop-color:#227F83"/>
		<stop  offset="1" style="stop-color:#00BCAE"/>
	</linearGradient>
	<path class="st49" d="M631.36,959.73c0,0-101.67-371.46-61.3-425.74c40.37-54.29,47.84,20.47,33.95,115.42
		c-3.74,25.54,68.81-91.23,27.35,50.02c-41.46,141.26,43.93-29.1,16.18,81.54C619.78,891.61,631.36,959.73,631.36,959.73z"/>
	
		<linearGradient id="SVGID_31_" gradientUnits="userSpaceOnUse" x1="1832.9493" y1="822.537" x2="1781.1194" y2="800.6089" gradientTransform="matrix(1 0 0 1 -1237.1093 0)">
		<stop  offset="0" style="stop-color:#227F83"/>
		<stop  offset="1" style="stop-color:#00BCAE"/>
	</linearGradient>
	<path class="st50" d="M627.7,917.12c0,0-42.37-179.6-74.07-193.53c-31.7-13.92-16.1,21.21,14.12,59.93
		c8.13,10.41-53.7-23.16,0.5,29.17c54.2,52.33-26.9-1.82,13.45,40.36C622.06,895.23,627.7,917.12,627.7,917.12z"/>
</g>
<g id="Layer_4">
	<g>
		
			<linearGradient id="SVGID_32_" gradientUnits="userSpaceOnUse" x1="1811.6212" y1="959.2393" x2="1874.9169" y2="927.1805" gradientTransform="matrix(1 0 0 1 -1237.1093 0)">
			<stop  offset="0" style="stop-color:#F79886"/>
			<stop  offset="1" style="stop-color:#FF626E"/>
		</linearGradient>
		<path class="st51" d="M654.81,949.92c0,6.7-4.16,12.41-10.03,14.7c-1.78,0.71-3.72,1.09-5.75,1.09h-46.47
			c-3.06,0-5.91-0.86-8.33-2.38c-1.03-0.64-1.98-1.39-2.85-2.25c-2.85-2.86-4.62-6.8-4.62-11.16c0-1.29,0.11-4.52,0.31-8.59
			c0.21-4.34,0.92-8.65,2.22-12.79c1.77-5.63,4.09-11.34,6.79-16.12c1.84-0.16,3.72-0.69,5.59-1.76c11.09-6.3,9.06-10.1,30.78-4.55
			c10.92,2.79,15.28,0.95,18.48-1.01c3.31,3.51,6.3,8.77,8.75,14.55c0.98,2.28,2.03,6.4,2.9,9.63c0.54,2,0.91,4.02,1.1,6.08
			C654.12,939.91,654.81,947.74,654.81,949.92z"/>
		<path class="st52" d="M633.64,898.94L633.64,898.94l0-17.9h-35.01v17.9c-14.37,0-26.02,37.14-26.02,51.51l0,0
			c0,9.73,7.88,17.61,17.61,17.61h25.91h25.91c9.73,0,17.61-7.88,17.61-17.61l0,0C659.66,936.08,648.01,898.94,633.64,898.94z"/>
		<path class="st52" d="M636.35,890.93h-40.44c-2.34,0-4.23-1.89-4.23-4.23v-1.43c0-2.34,1.89-4.23,4.23-4.23h40.44
			c2.34,0,4.23,1.89,4.23,4.23v1.43C640.58,889.04,638.69,890.93,636.35,890.93z"/>
	</g>
</g>
<g id="Layer_3">
	
		<linearGradient id="SVGID_33_" gradientUnits="userSpaceOnUse" x1="1671.8884" y1="915.2462" x2="1631.7953" y2="819.2339" gradientTransform="matrix(-1 0 0 1 3021.5701 0)">
		<stop  offset="0" style="stop-color:#227F83"/>
		<stop  offset="1" style="stop-color:#00BCAE"/>
	</linearGradient>
	<path class="st53" d="M1408.21,959.73c0,0,101.67-371.46,61.3-425.74c-40.37-54.29-47.84,20.47-33.95,115.42
		c3.74,25.54-68.81-91.23-27.35,50.02c41.46,141.26-43.93-29.1-16.18,81.54S1408.21,959.73,1408.21,959.73z"/>
	
		<linearGradient id="SVGID_34_" gradientUnits="userSpaceOnUse" x1="1577.8378" y1="822.537" x2="1526.0079" y2="800.6089" gradientTransform="matrix(-1 0 0 1 3021.5701 0)">
		<stop  offset="0" style="stop-color:#227F83"/>
		<stop  offset="1" style="stop-color:#00BCAE"/>
	</linearGradient>
	<path class="st54" d="M1411.87,917.12c0,0,42.37-179.6,74.07-193.53c31.7-13.92,16.1,21.21-14.12,59.93
		c-8.13,10.41,53.7-23.16-0.5,29.17c-54.2,52.33,26.9-1.82-13.45,40.36C1417.51,895.23,1411.87,917.12,1411.87,917.12z"/>
</g>
<g id="Layer_2">
	<g>
		
			<linearGradient id="SVGID_35_" gradientUnits="userSpaceOnUse" x1="1556.5098" y1="959.2393" x2="1619.8054" y2="927.1805" gradientTransform="matrix(-1 0 0 1 3021.5701 0)">
			<stop  offset="0" style="stop-color:#F79886"/>
			<stop  offset="1" style="stop-color:#FF626E"/>
		</linearGradient>
		<path class="st55" d="M1384.76,949.92c0,6.7,4.16,12.41,10.03,14.7c1.78,0.71,3.72,1.09,5.75,1.09H1447
			c3.06,0,5.91-0.86,8.33-2.38c1.03-0.64,1.98-1.39,2.85-2.25c2.85-2.86,4.62-6.8,4.62-11.16c0-1.29-0.11-4.52-0.31-8.59
			c-0.21-4.34-0.92-8.65-2.22-12.79c-1.77-5.63-4.09-11.34-6.79-16.12c-1.84-0.16-3.72-0.69-5.59-1.76
			c-11.09-6.3-9.06-10.1-30.78-4.55c-10.92,2.79-15.28,0.95-18.48-1.01c-3.31,3.51-6.3,8.77-8.75,14.55
			c-0.97,2.28-2.03,6.4-2.9,9.63c-0.54,2-0.91,4.02-1.1,6.08C1385.45,939.91,1384.76,947.74,1384.76,949.92z"/>
		<path class="st52" d="M1405.93,898.94L1405.93,898.94l0-17.9h35.01v17.9c14.37,0,26.02,37.14,26.02,51.51l0,0
			c0,9.73-7.88,17.61-17.61,17.61h-25.91h-25.91c-9.73,0-17.61-7.88-17.61-17.61l0,0C1379.91,936.08,1391.56,898.94,1405.93,898.94z
			"/>
		<path class="st52" d="M1403.22,890.93h40.44c2.34,0,4.23-1.89,4.23-4.23v-1.43c0-2.34-1.89-4.23-4.23-4.23h-40.44
			c-2.34,0-4.23,1.89-4.23,4.23v1.43C1398.99,889.04,1400.88,890.93,1403.22,890.93z"/>
	</g>
</g>
</svg>
